<?xml version="1.0" encoding="UTF-8"?>
<!DOCTYPE svg PUBLIC "-//W3C//DTD SVG 1.1//EN" "http://www.w3.org/Graphics/SVG/1.1/DTD/svg11.dtd">
<!-- Creator: CorelDRAW 2021 (64 Bit) -->
<svg xmlns="http://www.w3.org/2000/svg" xml:space="preserve" width="87.5185mm" height="111.149mm" version="1.1" style="shape-rendering:geometricPrecision; text-rendering:geometricPrecision; image-rendering:optimizeQuality; fill-rule:evenodd; clip-rule:evenodd"
viewBox="0 0 8750.78 11113.55"
 xmlns:xlink="http://www.w3.org/1999/xlink"
 xmlns:xodm="http://www.corel.com/coreldraw/odm/2003">
 <defs>
  <style type="text/css">
   <![CDATA[
    .fil18 {fill:none}
    .fil4 {fill:#03805E}
    .fil10 {fill:#04A65B}
    .fil15 {fill:#0C1620}
    .fil3 {fill:#2F9E5E}
    .fil20 {fill:#C9E7F5}
    .fil21 {fill:#E9F5FB}
    .fil11 {fill:#F8FCFE}
    .fil7 {fill:#FFDA5B}
    .fil12 {fill:#04A65B;fill-rule:nonzero}
    .fil13 {fill:#0C1620;fill-rule:nonzero}
    .fil2 {fill:white;fill-rule:nonzero}
    .fil17 {fill:#4E3822;fill-opacity:0.149020}
    .fil22 {fill:#C9E7F5;fill-opacity:0.501961}
    .fil19 {fill:url(#id2)}
    .fil16 {fill:url(#id3)}
    .fil9 {fill:url(#id4)}
    .fil8 {fill:url(#id5)}
    .fil1 {fill:url(#id6)}
    .fil14 {fill:url(#id7)}
    .fil0 {fill:url(#id8)}
    .fil6 {fill:url(#id9)}
    .fil5 {fill:url(#id10)}
   ]]>
  </style>
      <clipPath id="id0">
       <path d="M4722.35 5113.78c0,-436.47 217.54,-822.12 550.12,-1054.45 164.46,201.41 250.83,444.95 250.83,704.53 0,439.56 -254.4,819.68 -623.99,1001.18 -112.46,-190.99 -176.96,-413.59 -176.96,-651.26z"/>
      </clipPath>
      <clipPath id="id1">
       <path d="M4078.76 5113.78c0,-436.47 -217.55,-822.12 -550.13,-1054.45 -164.45,201.41 -250.82,444.95 -250.82,704.53 0,439.56 254.39,819.68 623.98,1001.18 112.46,-190.99 176.97,-413.59 176.97,-651.26z"/>
      </clipPath>
  <linearGradient id="id2" gradientUnits="userSpaceOnUse" x1="3277.8" y1="4912.19" x2="4078.76" y2="4912.19">
   <stop offset="0" style="stop-opacity:1; stop-color:#5D4229"/>
   <stop offset="1" style="stop-opacity:1; stop-color:#7A5230"/>
  </linearGradient>
  <linearGradient id="id3" gradientUnits="userSpaceOnUse" xlink:href="#id2" x1="5523.31" y1="4912.19" x2="4722.35" y2="4912.19">
  </linearGradient>
  <linearGradient id="id4" gradientUnits="userSpaceOnUse" x1="2700.28" y1="7741.25" x2="3454.77" y2="11042.18">
   <stop offset="0" style="stop-opacity:1; stop-color:#FECB3B"/>
   <stop offset="1" style="stop-opacity:1; stop-color:#F49650"/>
  </linearGradient>
  <linearGradient id="id5" gradientUnits="userSpaceOnUse" xlink:href="#id4" x1="6112.76" y1="7741.25" x2="6867.24" y2="11042.18">
  </linearGradient>
  <linearGradient id="id6" gradientUnits="userSpaceOnUse" x1="4748.24" y1="29.96" x2="4320.67" y2="11111.43">
   <stop offset="0" style="stop-opacity:1; stop-color:#03805E"/>
   <stop offset="1" style="stop-opacity:1; stop-color:#35A25E"/>
  </linearGradient>
  <linearGradient id="id7" gradientUnits="userSpaceOnUse" xlink:href="#id2" x1="4395.51" y1="3536.99" x2="4391.93" y2="4731.22">
  </linearGradient>
  <linearGradient id="id8" gradientUnits="userSpaceOnUse" x1="8031.79" y1="8566.5" x2="-816.21" y2="1061.3">
   <stop offset="0" style="stop-opacity:1; stop-color:#03805E"/>
   <stop offset="1" style="stop-opacity:1; stop-color:#30A057"/>
  </linearGradient>
  <linearGradient id="id9" gradientUnits="userSpaceOnUse" x1="2157.14" y1="8002.91" x2="1269.24" y2="3181.96">
   <stop offset="0" style="stop-opacity:1; stop-color:#FEC52E"/>
   <stop offset="0.580392" style="stop-opacity:1; stop-color:#FBAE3F"/>
   <stop offset="1" style="stop-opacity:1; stop-color:#F79651"/>
  </linearGradient>
  <linearGradient id="id10" gradientUnits="userSpaceOnUse" xlink:href="#id9" x1="6608.17" y1="8002.9" x2="7496.07" y2="3181.95">
  </linearGradient>
 </defs>
 <g id="Camada_x0020_1">
  <metadata id="CorelCorpID_0Corel-Layer"/>
  <g id="_2784867208048">
   <path class="fil0" d="M764.94 4677.46c-491.94,1070.84 -945.44,2490.18 -88.95,3506.4 415.93,493.49 1040.9,786.54 1617.59,1048.01 535.33,242.72 1254.21,536.16 1621.5,1011.48 244.14,315.96 348.89,481.89 460.31,870.2 111.43,-388.31 216.16,-554.24 460.3,-870.2 367.31,-475.31 1086.17,-768.76 1621.5,-1011.48 576.69,-261.47 1201.67,-554.52 1617.6,-1048.01 856.5,-1016.23 402.98,-2435.56 -88.95,-3506.4 -302.17,-657.76 -87.89,-1210.66 527.5,-1562.82l237.43 -135.87 -1436.66 -1921.74 -109.11 -8.69c-179.45,-14.28 -413.06,-117.47 -575.41,-192.59 -267.14,-123.62 -527.46,-264.37 -791.12,-395.47 -428.03,-212.81 -979.41,-469.83 -1465.56,-460 -495.93,0.75 -972.97,211.66 -1405.71,435.25 -259.75,134.21 -514.6,281.1 -778.57,406.5 -194.48,92.39 -426.33,189.09 -642.85,206.31l-109.11 8.69 -1436.67 1921.74 237.43 135.87c615.38,352.16 829.68,905.06 527.51,1562.82z"/>
   <path class="fil1" d="M4376.08 10357.53c633.64,-2208.19 5493.94,-906.44 3351.43,-5570.23 -366.98,-798.82 -60.17,-1463.38 620.1,-1852.68l-1193.64 -1596.68c-671.52,-53.43 -1916.25,-1054.65 -2778.4,-1035.43 -983.37,0 -1965.95,970.75 -2778.76,1035.43l-1193.65 1596.68c680.27,389.3 987.09,1053.86 620.11,1852.68 -2142.52,4663.79 2719.16,3362.04 3352.81,5570.23z"/>
   <path class="fil2" d="M1505 3836.59l350.14 93.26 -25.93 97.34 -193.2 -51.46 175.61 117.53 -21.69 81.45 -212.41 14.7 194.69 51.84 -25.93 97.36 -350.15 -93.26 31.36 -117.71 250.88 -27.34 -204.58 -146.49 31.22 -117.22zm390.59 -200.8l-43.07 121.06 49.14 38.22 -35.49 99.75 -297.11 -245.9 38.94 -109.45 385.48 -2.5 -35.66 100.24 -62.23 -1.41zm-81.08 -2.11l-123.49 -2.48 97.49 75.6 26.01 -73.12zm276.97 -289.42l-151.72 4.05 -4.85 9.63 119.31 60.19 -45.38 89.94 -323.51 -163.21 71.53 -141.8c13.13,-26 28.76,-45.74 46.88,-59.23 18.14,-13.51 37.4,-20.87 57.77,-22.1 20.39,-1.23 40.37,3.1 59.95,12.98 22.03,11.1 38.32,26.92 48.89,47.41 10.58,20.49 13.52,44.14 8.82,70.94l163.01 -9.31 -50.7 100.51zm-218.07 -17.35l22.46 -44.5c6.17,-12.23 7.9,-22.88 5.18,-31.94 -2.73,-9.04 -9.59,-16.36 -20.61,-21.91 -10.41,-5.25 -20.18,-6.24 -29.3,-2.97 -9.14,3.25 -16.72,10.85 -22.73,22.78l-22.46 44.5 67.45 34.04zm24.23 -386.38l316.19 176.98 -49.2 87.91 -316.19 -176.98 49.2 -87.91zm425.51 -95.26l-72.39 106.18 37.85 49.43 -59.64 87.48 -224.98 -313.25 65.42 -95.98 373.51 95.4 -59.93 87.91 -59.83 -17.17zm-77.89 -22.61l-118.83 -33.74 75.11 97.87 43.71 -64.13zm138.42 -261.19c-26.38,-23.97 -44.88,-50.85 -55.53,-80.66 -10.65,-29.82 -12.52,-60.11 -5.63,-90.88 6.9,-30.78 22.34,-59.34 46.28,-85.71 30.43,-33.49 64.94,-53.51 103.55,-60.09 38.63,-6.58 76.27,0.77 112.95,22.06l-72.92 80.27c-14.52,-4.4 -28.31,-4.77 -41.35,-1.12 -13.04,3.67 -24.64,11.07 -34.78,22.23 -15.68,17.25 -22.02,36.59 -19.05,58.03 2.97,21.45 14.72,41.5 35.27,60.17 20.8,18.89 42,28.79 63.63,29.69 21.64,0.92 40.29,-7.25 55.96,-24.5 10.14,-11.16 16.4,-23.42 18.8,-36.75 2.39,-13.34 0.7,-27.02 -5.08,-41.04l72.94 -80.27c24.7,34.48 35.61,71.24 32.76,110.32 -2.86,39.08 -19.5,75.34 -49.91,108.82 -23.97,26.37 -50.93,44.46 -80.9,54.26 -29.98,9.8 -60.3,10.84 -91,3.09 -30.69,-7.75 -59.35,-23.72 -85.98,-47.91zm307.24 -453.48l37.34 45.83 89.66 -73.03 48.36 59.37 -89.66 73.04 41.22 50.6 101.62 -82.77 50.95 62.57 -179.74 146.39 -228.82 -280.96 179.73 -146.39 50.95 62.57 -101.62 82.76zm-37.49 -165.67l-67.83 120.21 -43.16 -53 62.95 -126.17 48.04 58.97zm396.28 150.7l94.35 -61.39 42.05 64.62 -178.78 116.34 -197.64 -303.71 84.44 -54.94 155.57 239.09zm76.57 -382.22l180.49 314.2 -87.37 50.18 -180.48 -314.2 87.36 -50.18zm419.61 135.12l-118.05 50.74 5.4 62.02 -97.27 41.82 -21.77 -385.06 106.72 -45.88 264 280.93 -97.75 42.01 -41.28 -46.58zm-53.59 -60.87l-82.17 -92.23 10.87 122.88 71.3 -30.66zm543.95 -268.1c4.86,21.39 4.35,41.97 -1.54,61.76 -5.87,19.78 -17.56,37.18 -35.06,52.21 -17.49,15.05 -40.61,25.82 -69.34,32.34l-48.62 11.03 27.07 119.3 -98.25 22.29 -80.17 -353.37 146.87 -33.33c28.39,-6.44 53.68,-6.9 75.84,-1.39 22.15,5.52 40.26,16 54.29,31.43 14.05,15.44 23.69,34.68 28.91,57.73zm-133.2 70.28c27.74,-6.3 38.72,-22.14 32.96,-47.53 -5.84,-25.73 -22.62,-35.45 -50.35,-29.17l-39.1 8.88 17.4 76.68 39.1 -8.86zm295.23 -199.79l34.83 360.68 -100.27 9.68 -34.84 -360.67 100.28 -9.69zm428.43 359.14l-100.69 -3.24 -127.56 -206.71 -6.51 202.41 -100.69 -3.23 11.64 -362.18 100.69 3.24 127.48 209.28 6.59 -204.97 100.7 3.24 -11.65 362.17zm453.49 -276.68l-80.18 353.37 -98.23 -22.29 32.18 -141.85 -119.8 -27.18 -32.19 141.85 -98.24 -22.3 80.17 -353.36 98.25 22.29 -30.14 132.82 119.79 27.17 30.14 -132.81 98.25 22.29zm164.51 141.64l-20.07 55.6 108.78 39.25 -25.99 72.02 -108.78 -39.25 -22.16 61.4 123.28 44.48 -27.39 75.9 -218.04 -78.67 122.98 -340.85 218.04 78.68 -27.39 75.9 -123.28 -44.47zm321.77 57.82l-162.3 323.97 -90.07 -45.12 162.3 -323.98 90.07 45.13zm47.84 443.4l12.58 -151.25 -9.05 -5.89 -72.88 112.02 -84.44 -54.95 197.64 -303.71 133.11 86.63c24.41,15.88 42.33,33.58 53.76,53.07 11.44,19.5 16.65,39.45 15.64,59.84 -1.02,20.4 -7.49,39.79 -19.46,58.17 -13.46,20.68 -30.96,35.15 -52.48,43.41 -21.53,8.28 -45.35,8.61 -71.48,1.01l-8.59 163.05 -94.35 -61.4zm41.09 -214.86l41.79 27.19c11.48,7.48 21.87,10.35 31.17,8.64 9.29,-1.72 17.31,-7.74 24.04,-18.08 6.35,-9.77 8.41,-19.38 6.16,-28.81 -2.24,-9.43 -8.96,-17.79 -20.16,-25.08l-41.78 -27.19 -41.21 63.32zm224.07 409.66c-26.3,-21.43 -45.45,-47.29 -57.44,-77.6 -11.99,-30.33 -15.5,-61.69 -10.53,-94.11 4.96,-32.41 18.7,-62.43 41.2,-90.06 22.5,-27.63 49.12,-47.15 79.86,-58.58 30.74,-11.42 62.11,-14.26 94.12,-8.52 32,5.74 61.15,19.32 87.45,40.75 26.58,21.64 45.83,47.49 57.8,77.56 11.97,30.08 15.4,61.26 10.3,93.57 -5.1,32.31 -18.9,62.28 -41.4,89.91 -22.5,27.63 -49.05,47.2 -79.66,58.73 -30.61,11.54 -61.97,14.5 -94.09,8.89 -32.11,-5.6 -61.31,-19.12 -87.61,-40.54zm59.06 -72.52c19.93,16.22 40.97,22.54 63.13,18.93 22.16,-3.62 42.11,-16.3 59.86,-38.09 18.18,-22.32 26.73,-44.63 25.67,-66.93 -1.06,-22.3 -11.56,-41.56 -31.48,-57.79 -20.2,-16.44 -41.24,-22.88 -63.17,-19.3 -21.92,3.59 -41.96,16.54 -60.14,38.86 -17.96,22.05 -26.47,44.16 -25.55,66.36 0.92,22.19 11.48,41.5 31.68,57.96zm618.25 235.38l-59.34 53.93 -97.47 -107.28 -47.16 42.85 71.89 79.13 -56.68 51.5 -71.89 -79.13 -104.99 95.39 -67.75 -74.55 268.19 -243.68 165.21 181.83zm-62.74 431.17l-72.38 -106.18 -59.84 17.16 -59.64 -87.47 373.79 -94.99 65.44 95.99 -225.28 312.82 -59.92 -87.91 37.84 -49.42zm49.5 -64.24l74.83 -98.29 -118.55 34.16 43.71 64.13zm110.44 278.38l54.96 98.22 -67.28 37.66 -104.17 -186.13 316.19 -176.97 49.2 87.91 -248.91 139.31zm171.01 80.47c32.47,-14.7 64.49,-21 96.09,-18.94 31.59,2.06 60.12,12.37 85.63,30.92 25.5,18.55 45.6,44.05 60.29,76.51 18.66,41.22 23.33,80.85 14.04,118.91 -9.29,38.06 -30.99,69.68 -65.08,94.9l-44.71 -98.81c9.79,-11.58 15.61,-24.09 17.44,-37.51 1.82,-13.43 -0.38,-27.02 -6.6,-40.75 -9.6,-21.23 -24.84,-34.74 -45.7,-40.53 -20.85,-5.79 -43.92,-2.96 -69.21,8.48 -25.6,11.59 -43.1,27.12 -52.52,46.61 -9.43,19.5 -9.33,39.86 0.27,61.08 6.22,13.74 14.98,24.36 26.27,31.84 11.28,7.5 24.51,11.39 39.69,11.66l44.71 98.81c-41.44,8.97 -79.53,4.4 -114.26,-13.74 -34.73,-18.14 -61.4,-47.8 -80.05,-89.02 -14.7,-32.47 -20.59,-64.4 -17.69,-95.8 2.9,-31.41 14,-59.64 33.3,-84.74 19.3,-25.09 45.33,-45.06 78.11,-59.89zm127.94 637.94l-43.07 -121.06 -62.24 1.41 -35.49 -99.74 385.66 2.96 38.94 109.44 -297.27 245.44 -35.67 -100.24 49.14 -38.22zm64.18 -49.57l97.32 -76.09 -123.33 2.97 26.02 73.12zm184.38 -225.44c55.82,-9.68 90.75,5.16 104.77,44.54 2.65,7.43 3.9,14.53 3.76,21.31 -0.13,6.77 -0.91,14.78 -2.35,24.02 -0.96,6.53 -1.56,12.01 -1.79,16.46 -0.24,4.45 0.34,8.6 1.72,12.49 4.24,11.94 14.19,16.4 29.86,13.38l17.05 47.93c-29.05,5.25 -51.99,3.87 -68.85,-4.14 -16.84,-8.01 -28.66,-21.54 -35.44,-40.58 -2.53,-7.11 -3.78,-13.94 -3.75,-20.49 0.03,-6.57 0.66,-14.79 1.86,-24.67 0.96,-6.53 1.56,-12.01 1.79,-16.47 0.24,-4.44 -0.34,-8.6 -1.72,-12.48 -4.13,-11.62 -14.14,-16.24 -30.02,-13.86l-16.89 -47.45zm-211.03 613.29c-8.73,-32.78 -9.06,-64.96 -0.99,-96.54 8.08,-31.59 23.65,-59.05 46.68,-82.39 23.04,-23.33 51.77,-39.59 86.21,-48.75 34.43,-9.17 67.45,-9.37 99.05,-0.58 31.59,8.78 58.66,24.89 81.21,48.31 22.55,23.43 38.19,51.53 46.92,84.31 8.81,33.11 9.24,65.35 1.29,96.72 -7.95,31.39 -23.48,58.65 -46.56,81.82 -23.08,23.17 -51.84,39.34 -86.28,48.5 -34.43,9.17 -67.41,9.45 -98.97,0.83 -31.56,-8.62 -58.68,-24.62 -81.41,-47.99 -22.71,-23.39 -38.43,-51.46 -47.15,-84.24zm90.39 -24.08c6.61,24.83 19.95,42.29 40.01,52.37 20.07,10.08 43.67,11.51 70.82,4.28 27.82,-7.41 47.83,-20.46 60.06,-39.15 12.22,-18.67 15.02,-40.44 8.41,-65.26 -6.7,-25.17 -19.98,-42.72 -39.84,-52.68 -19.85,-9.97 -43.67,-11.24 -71.49,-3.83 -27.49,7.32 -47.35,20.23 -59.62,38.75 -12.28,18.52 -15.05,40.36 -8.35,65.52z"/>
   <path class="fil2" d="M2715.88 1475.09l24.53 37.62 73.59 -47.99 31.78 48.73 -73.59 47.99 27.08 41.53 83.41 -54.38 33.49 51.35 -147.51 96.19 -150.36 -230.58 147.52 -96.2 33.48 51.35 -83.4 54.38zm190.91 -122.51l22.55 38.83 75.98 -44.12 29.22 50.31 -75.97 44.12 24.9 42.87 86.11 -50 30.79 53.01 -152.29 88.44 -138.24 -238.03 152.28 -88.45 30.79 53 -86.1 50.01zm195.06 -106.29l20.49 39.96 78.19 -40.08 26.54 51.77 -78.18 40.08 22.63 44.12 88.6 -45.42 27.97 54.56 -156.71 80.34 -125.58 -244.96 156.71 -80.34 27.97 54.54 -88.61 45.42zm358.34 -115.5c5.97,15.57 7.82,31.09 5.54,46.6 -2.27,15.51 -9.17,29.87 -20.7,43.07 -11.52,13.2 -27.73,23.82 -48.63,31.84l-35.36 13.57 33.29 86.76 -71.45 27.42 -98.62 -257.01 106.82 -40.98c20.67,-7.92 39.63,-11.02 56.88,-9.28 17.25,1.74 32,7.66 44.23,17.74 12.23,10.09 21.56,23.51 28,40.28zm-92.53 67.29c20.16,-7.74 26.71,-20.84 19.61,-39.32 -7.17,-18.7 -20.86,-24.2 -41.01,-16.46l-28.45 10.91 21.41 55.78 28.45 -10.92zm423.29 -161.59c4.21,16.13 4.34,31.77 0.37,46.93 -3.96,15.16 -12.4,28.68 -25.32,40.53 -12.9,11.85 -30.19,20.63 -51.84,26.3l-36.64 9.58 23.53 89.9 -74.04 19.38 -69.7 -266.3 110.69 -28.98c21.4,-5.6 40.59,-6.59 57.54,-2.95 16.97,3.63 30.96,11.13 42.01,22.51 11.04,11.37 18.85,25.74 23.4,43.1zm-99.39 56.7c20.9,-5.47 28.85,-17.78 23.84,-36.93 -5.08,-19.39 -18.07,-26.35 -38.97,-20.88l-29.47 7.71 15.13 57.8 29.47 -7.71zm314.42 92.07l-68.58 -92.68 -8.12 1.16 14.49 100.49 -75.75 10.92 -39.27 -272.47 119.43 -17.21c21.9,-3.15 40.99,-2.03 57.29,3.38 16.3,5.41 29.27,14.2 38.91,26.36 9.65,12.15 15.65,26.48 18.03,42.95 2.67,18.56 -0.07,35.59 -8.22,51.08 -8.15,15.52 -21.6,27.65 -40.32,36.41l76.75 97.41 -84.64 12.2zm-84.15 -143.3l37.48 -5.4c10.31,-1.48 17.69,-5.05 22.14,-10.69 4.45,-5.63 6.01,-13.1 4.67,-22.37 -1.26,-8.76 -4.9,-15.27 -10.91,-19.53 -6.01,-4.28 -14.03,-5.67 -24.09,-4.23l-37.48 5.4 8.19 56.81zm332.6 121.68c-25.76,0.74 -49.61,-4.62 -71.56,-16.1 -21.94,-11.5 -39.53,-27.78 -52.77,-48.89 -13.23,-21.1 -20.24,-45.18 -21.01,-72.25 -0.77,-27.05 4.84,-51.5 16.85,-73.33 12,-21.83 28.63,-39.04 49.88,-51.62 21.26,-12.59 44.75,-19.25 70.52,-19.99 26.02,-0.74 49.94,4.56 71.74,15.92 21.82,11.35 39.28,27.58 52.37,48.69 13.11,21.11 20.05,45.18 20.83,72.25 0.77,27.07 -4.78,51.5 -16.65,73.32 -11.88,21.83 -28.44,39.1 -49.69,51.82 -21.26,12.72 -44.74,19.45 -70.51,20.18zm-2.04 -71.03c19.52,-0.56 34.76,-7.38 45.7,-20.45 10.95,-13.08 16.13,-30.29 15.51,-51.62 -0.63,-21.85 -6.77,-38.93 -18.46,-51.22 -11.68,-12.3 -27.28,-18.17 -46.79,-17.61 -19.78,0.57 -35.08,7.32 -45.9,20.27 -10.82,12.94 -15.92,30.35 -15.3,52.19 0.63,21.6 6.71,38.55 18.26,50.84 11.55,12.3 27.21,18.17 46.98,17.6zm371.78 -208.19l-1.75 60.88 -110.06 -3.15 -1.39 48.4 81.18 2.33 -1.67 58.15 -81.18 -2.33 -3.09 107.73 -76.5 -2.2 7.89 -275.17 186.57 5.35zm130.65 75.34l-6.41 44.44 86.96 12.54 -8.3 57.58 -86.96 -12.53 -7.07 49.08 98.55 14.19 -8.74 60.68 -174.31 -25.12 39.27 -272.46 174.31 25.12 -8.75 60.67 -98.55 -14.21zm208.74 256.63c-31.38,-6.36 -55.63,-19.05 -72.76,-38.05 -17.14,-19.01 -23.66,-42.57 -19.56,-70.69l79.98 16.2c-1.13,9.59 0.27,17.05 4.25,22.38 3.96,5.31 9.78,8.75 17.43,10.29 6.89,1.4 12.92,0.83 18.08,-1.71 5.16,-2.55 8.36,-6.87 9.6,-12.99 1.6,-7.92 -0.85,-14.78 -7.38,-20.63 -6.51,-5.83 -17.52,-13.11 -33.02,-21.83 -16.42,-9.44 -29.5,-17.99 -39.24,-25.67 -9.73,-7.68 -17.55,-17.63 -23.43,-29.85 -5.9,-12.22 -7.11,-26.87 -3.65,-43.96 3.51,-17.35 10.86,-31.33 22.04,-41.94 11.17,-10.62 25.07,-17.57 41.66,-20.85 16.6,-3.28 34.6,-2.95 53.99,0.97 31.38,6.36 54.95,18.77 70.74,37.24 15.78,18.47 21.63,41.09 17.53,67.89l-81.52 -16.51c1.4,-8.21 0.16,-14.85 -3.74,-19.88 -3.9,-5.04 -9.55,-8.31 -16.94,-9.81 -5.61,-1.13 -10.55,-0.4 -14.78,2.18 -4.25,2.6 -6.99,6.96 -8.24,13.08 -1.03,5.11 0.06,9.91 3.26,14.41 3.21,4.5 7.48,8.68 12.81,12.55 5.31,3.87 13.31,9.01 23.97,15.42 15.9,9.32 28.82,17.99 38.76,25.97 9.93,8 17.89,17.96 23.83,29.93 5.94,11.97 7.32,25.85 4.11,41.66 -3.25,16.07 -10.2,29.68 -20.82,40.81 -10.61,11.14 -24.27,18.86 -40.93,23.19 -16.68,4.32 -35.37,4.39 -56.03,0.21zm234.34 56.46c-30.48,-9.83 -53.17,-25.13 -68.07,-45.92 -14.91,-20.81 -18.76,-44.95 -11.55,-72.43l77.68 25.02c-2.21,9.4 -1.64,16.97 1.72,22.71 3.34,5.72 8.75,9.78 16.17,12.18 6.7,2.15 12.75,2.26 18.16,0.3 5.42,-1.94 9.08,-5.89 10.99,-11.83 2.48,-7.7 0.8,-14.79 -5.03,-21.32 -5.82,-6.53 -15.96,-14.98 -30.39,-25.38 -15.26,-11.21 -27.3,-21.17 -36.11,-29.88 -8.83,-8.73 -15.49,-19.48 -19.98,-32.29 -4.49,-12.8 -4.07,-27.49 1.28,-44.08 5.43,-16.86 14.29,-29.93 26.59,-39.23 12.29,-9.31 26.87,-14.67 43.72,-16.09 16.86,-1.39 34.72,0.93 53.55,6.99 30.47,9.83 52.52,24.79 66.14,44.9 13.62,20.11 16.91,43.24 9.85,69.41l-79.17 -25.49c2.31,-8.01 1.81,-14.74 -1.5,-20.18 -3.31,-5.44 -8.55,-9.32 -15.74,-11.63 -5.46,-1.76 -10.43,-1.58 -14.94,0.52 -4.51,2.1 -7.72,6.13 -9.63,12.07 -1.6,4.96 -1.06,9.86 1.62,14.68 2.7,4.84 6.46,9.47 11.34,13.91 4.85,4.43 12.22,10.43 22.1,17.99 14.76,11.03 26.64,21.09 35.62,30.14 8.98,9.05 15.76,19.84 20.34,32.39 4.57,12.55 4.39,26.51 -0.56,41.87 -5.02,15.61 -13.45,28.35 -25.24,38.23 -11.79,9.87 -26.22,16.03 -43.27,18.47 -17.06,2.44 -35.63,0.43 -55.69,-6.03zm254.19 90.71c-24.06,-9.24 -43.99,-23.38 -59.84,-42.41 -15.83,-19.04 -25.8,-40.85 -29.9,-65.42 -4.09,-24.57 -1.28,-49.49 8.42,-74.77 9.7,-25.28 24.28,-45.67 43.75,-61.2 19.49,-15.53 41.45,-25.02 65.92,-28.46 24.47,-3.43 48.72,-0.54 72.78,8.69 24.3,9.32 44.33,23.43 60.09,42.29 15.77,18.88 25.63,40.58 29.6,65.1 3.98,24.52 1.12,49.43 -8.58,74.71 -9.7,25.27 -24.24,45.69 -43.58,61.26 -19.36,15.58 -41.29,25.14 -65.8,28.71 -24.52,3.56 -48.79,0.73 -72.86,-8.5zm25.46 -66.35c18.24,6.99 34.92,6.56 50.05,-1.29 15.15,-7.85 26.54,-21.75 34.19,-41.66 7.83,-20.42 8.73,-38.56 2.68,-54.39 -6.05,-15.84 -18.19,-27.26 -36.42,-34.26 -18.48,-7.09 -35.21,-6.74 -50.17,1.03 -14.97,7.78 -26.37,21.88 -34.2,42.29 -7.75,20.17 -8.66,38.16 -2.73,53.95 5.93,15.8 18.13,27.24 36.6,34.33zm259.26 199.39l-2.33 -115.28 -7.3 -3.74 -46.3 90.34 -68.11 -34.92 125.58 -244.96 107.37 55.04c19.69,10.1 34.62,22.06 44.78,35.91 10.17,13.84 15.66,28.5 16.5,43.98 0.83,15.5 -2.56,30.67 -10.16,45.48 -8.55,16.68 -20.63,28.98 -36.26,36.92 -15.62,7.94 -33.61,10.06 -53.94,6.37l6.26 123.86 -76.09 -39.02zm14.25 -165.57l33.7 17.28c9.27,4.75 17.35,6.11 24.25,4.09 6.88,-2.04 12.47,-7.22 16.74,-15.56 4.04,-7.87 4.84,-15.29 2.4,-22.24 -2.43,-6.96 -8.17,-12.75 -17.2,-17.38l-33.7 -17.28 -26.19 51.08zm261.74 282.51l-81.78 -53.32 -36.95 29.52 -67.38 -43.93 234.42 -175.78 73.91 48.19 -66.63 285.19 -67.7 -44.14 12.11 -45.71zm15.96 -59.52l23.76 -90.77 -73.14 58.57 49.38 32.2z"/>
   <path class="fil2" d="M3613.87 2265.49c0,-26.82 6.05,-50.82 18.16,-72.05 12.1,-21.21 28.64,-37.74 49.59,-49.58 20.95,-11.84 44.44,-17.76 70.47,-17.76 30.46,0 57.14,7.8 80.04,23.42 22.92,15.63 38.93,37.23 48.03,64.82l-62.87 0c-6.24,-13.02 -15.03,-22.78 -26.35,-29.28 -11.32,-6.52 -24.41,-9.77 -39.25,-9.77 -15.88,0 -30,3.71 -42.36,11.13 -12.36,7.41 -22,17.9 -28.89,31.43 -6.91,13.54 -10.36,29.42 -10.36,47.64 0,17.97 3.45,33.78 10.36,47.44 6.89,13.66 16.53,24.2 28.89,31.63 12.37,7.42 26.49,11.12 42.36,11.12 14.84,0 27.93,-3.31 39.25,-9.95 11.32,-6.64 20.11,-16.47 26.35,-29.49l62.87 0c-9.11,27.86 -25.06,49.52 -47.83,65.01 -22.78,15.5 -49.52,23.24 -80.24,23.24 -26.03,0 -49.52,-5.92 -70.47,-17.77 -20.96,-11.85 -37.5,-28.31 -49.59,-49.39 -12.11,-21.09 -18.16,-45.03 -18.16,-71.84zm453.71 136.66l-60.13 -106.21 -25.77 0 0 106.21 -54.66 0 0 -272.55 102.3 0c21.09,0 39.05,3.71 53.88,11.13 14.84,7.42 25.98,17.44 33.39,30.07 7.42,12.62 11.13,26.75 11.13,42.36 0,17.96 -5.21,34.17 -15.62,48.61 -10.41,14.45 -25.9,24.4 -46.46,29.87l65.2 110.51 -63.25 0zm-85.9 -147.2l45.68 0c14.84,0 25.9,-3.59 33.19,-10.74 7.29,-7.17 10.94,-17.12 10.94,-29.88 0,-12.5 -3.65,-22.19 -10.94,-29.09 -7.29,-6.9 -18.35,-10.35 -33.19,-10.35l-45.68 0 0 80.05zm250.29 -81.23l0 68.33 91.76 0 0 43.34 -91.76 0 0 72.24 103.48 0 0 44.51 -158.14 0 0 -272.94 158.14 0 0 44.5 -103.48 0zm248.33 -44.11c28.64,0 53.82,5.59 75.55,16.79 21.75,11.2 38.54,27.14 50.38,47.83 11.84,20.7 17.76,44.7 17.76,72.04 0,27.34 -5.92,51.21 -17.76,71.65 -11.85,20.44 -28.64,36.25 -50.38,47.43 -21.73,11.2 -46.91,16.8 -75.55,16.8l-95.27 0 0 -272.55 95.27 0zm-1.95 226.07c28.63,0 50.76,-7.8 66.38,-23.43 15.61,-15.62 23.43,-37.61 23.43,-65.98 0,-28.38 -7.82,-50.56 -23.43,-66.57 -15.62,-16.02 -37.76,-24.02 -66.38,-24.02l-38.66 0 0 180 38.66 0zm241.31 -181.96l0 68.33 91.76 0 0 43.34 -91.76 0 0 72.24 103.48 0 0 44.51 -158.14 0 0 -272.94 158.14 0 0 44.5 -103.48 0zm233.1 -5.85l0 -50.37 94.1 0 0 284.66 -56.22 0 0 -234.28 -37.88 0zm141.35 0l0 -50.37 94.1 0 0 284.66 -56.23 0 0 -234.28 -37.87 0z"/>
   <path class="fil3" d="M4375.4 3002.49c1100.91,0 1993.39,1364.28 1993.39,3047.22 0,1682.92 -892.48,3047.21 -1993.39,3047.21 -1100.92,0 -1993.38,-1364.28 -1993.38,-3047.21 0,-1682.93 892.46,-3047.22 1993.38,-3047.22z"/>
   <path class="fil4" d="M4375.4 3142.36c1050.39,0 1901.9,1301.66 1901.9,2907.35 0,1605.68 -851.51,2907.36 -1901.9,2907.36 -1050.38,0 -1901.89,-1301.68 -1901.89,-2907.36 0,-1605.69 851.51,-2907.35 1901.89,-2907.35z"/>
   <path class="fil5" d="M6348.74 7536.91c147.36,199.54 350.87,352.2 455.08,419.95 -283.82,-219.96 -229.19,-761.08 189.4,-1410.29 233.96,-362.27 701,-1153.26 494.77,-2056.18 -10.31,102.32 -261.3,388.95 -276.84,359.52 -57.95,-109.84 -168.52,-250.88 -373.38,-446.57 305.99,613.3 -143.47,1386.09 -418.95,1812.67 -422.25,653.82 -474.6,1194.73 -186.94,1412.4 -5.74,-43.63 81.47,-65.92 116.86,-91.5z"/>
   <path class="fil6" d="M2416.56 7536.92c-147.36,199.54 -350.87,352.2 -455.08,419.95 283.82,-219.96 229.19,-761.08 -189.4,-1410.29 -233.96,-362.27 -701,-1153.26 -494.77,-2056.18 10.31,102.32 261.3,388.95 276.84,359.52 57.95,-109.84 168.52,-250.88 373.38,-446.57 -305.99,613.3 143.47,1386.09 418.95,1812.67 422.25,653.82 474.6,1194.73 186.94,1412.4 5.74,-43.63 -81.47,-65.92 -116.86,-91.5z"/>
   <path class="fil7" d="M2032.91 5028.83l0 2087.29c0,1167.8 1054.55,2123.27 2343.45,2123.27 1288.9,0 2343.45,-955.47 2343.45,-2123.27l0 -2087.29c0,-550.24 73.6,-1307.07 -825.8,-1183.57 6.98,53.27 10.69,1128.7 10.69,1183.57l0 2087.29c0,760.15 -689.37,1384.74 -1528.34,1384.74 -838.98,0 -1528.34,-624.59 -1528.34,-1384.74l0 -2087.29c0,-54.86 3.71,-1130.29 10.69,-1183.57 -801.28,-111.18 -825.8,693.41 -825.8,1183.57z"/>
   <path class="fil8" d="M6804.03 8316.67l0.51 0c0,1002.49 -789.22,1162.58 -1430.28,715.81 144.19,-58.79 469.71,-259.44 598.41,-368.29 120.61,-11.83 221.2,-43.84 227.99,-124.4 38.41,-455.48 -0.07,-914.6 -0.07,-1371.94l-0.51 0c0,-418.9 9.92,-891.51 604.46,-889.6 -0.55,631.01 -0.51,1407.35 -0.51,2038.43z"/>
   <path class="fil9" d="M1962.29 8316.67l-0.51 0c0,1002.49 789.22,1162.58 1430.28,715.81 -144.19,-58.79 -469.7,-259.44 -598.41,-368.29 -120.61,-11.83 -221.2,-43.84 -227.98,-124.4 -38.42,-455.48 0.06,-914.6 0.06,-1371.94l0.51 0c0,-418.9 -9.92,-891.51 -604.46,-889.6 0.56,631.01 0.51,1407.35 0.51,2038.43z"/>
   <path class="fil10" d="M5779.97 6327.24l0 -192.16 -27.63 -10.84c-9.71,-3.78 -235.5,-91.43 -536.62,-91.43 -322.63,0 -600.48,98.31 -826.67,292.22 -226.08,-193.92 -504.05,-292.22 -826.68,-292.22 -301.22,0 -527.02,87.65 -536.39,91.43l-27.92 10.84 0 178.01c-91.13,17.04 -147.96,47.59 -147.96,97.43 0,259.43 0,1834.07 0,1834.07l1350.86 0c46.72,41.77 115.1,68.15 191.5,68.15 76.51,0 144.73,-26.38 191.49,-68.15l1316.72 0c0,0 0,-1743.01 0,-1834.07 -0.11,-40.53 -46.16,-66.98 -120.7,-83.28zm-1405.54 1772.68c-112.09,-46.42 -498.33,-193.14 -885.12,-193.14 -152.87,0 -288.33,23.45 -403.61,69.8l-0.03 -1780.82c67.27,-22.5 250.7,-75.52 476.59,-75.52 297.06,0 552.3,89.88 760.76,264.96l0 1063.05 51.37 -56.61 0.04 708.28zm1317.78 -122.82c-123.81,-49.82 -266.02,-74.85 -423.58,-74.85 -386.64,0 -754.56,148.14 -865.36,196.8l0 -707.62 51.66 56.79 0.04 -1063.01c208.34,-175.19 463.58,-264.96 760.64,-264.96 225.13,0 409.22,53.13 476.6,75.52l0 1781.33z"/>
   <path class="fil11" d="M4454.97 6385.2l-0.03 887.95 0 175.07 -51.66 -56.8 0 707.62c110.8,-48.66 478.72,-196.8 865.36,-196.8 157.56,0 299.77,25.03 423.58,74.85l0 -703.94 0 -1077.39c-67.38,-22.39 -251.47,-75.52 -476.6,-75.52 -297.04,0 -552.29,89.78 -760.65,264.96zm-131.93 887.95l0 -887.95c-208.46,-175.08 -463.7,-264.96 -760.77,-264.96 -82.56,0 -159.46,7.08 -227.08,17.17 -117.39,17.52 -206.83,44.07 -249.51,58.35l0.03 1780.82c115.29,-46.34 250.75,-69.8 403.61,-69.8 386.79,0 773.04,146.71 885.12,193.14l-0.04 -708.28 -51.36 56.61 0 -175.1z"/>
   <path class="fil12" d="M3498.89 6962.86l-44.16 117.05 -17.64 0 -44.15 -117.05 16.29 0 36.78 100.92 36.78 -100.92 16.12 0zm24.69 10.07c-2.91,0 -5.37,-1.01 -7.39,-3.02 -2.01,-2.02 -3.02,-4.48 -3.02,-7.39 0,-2.91 1.01,-5.38 3.02,-7.39 2.02,-2.02 4.48,-3.02 7.39,-3.02 2.81,0 5.18,1 7.14,3.02 1.96,2.01 2.94,4.48 2.94,7.39 0,2.91 -0.98,5.37 -2.94,7.39 -1.96,2.01 -4.33,3.02 -7.14,3.02zm7.39 14.95l0 92.03 -15.28 0 0 -92.03 15.28 0zm60.29 77.92l28.55 -77.92 16.29 0 -36.11 92.03 -17.8 0 -36.11 -92.03 16.46 0 28.72 77.92zm143.92 -35.44c0,2.91 -0.17,5.99 -0.51,9.24l-73.55 0c0.56,9.06 3.67,16.15 9.32,21.25 5.65,5.09 12.51,7.64 20.57,7.64 6.61,0 12.12,-1.55 16.55,-4.62 4.42,-3.08 7.53,-7.2 9.32,-12.35l16.46 0c-2.46,8.85 -7.38,16.04 -14.78,21.59 -7.39,5.54 -16.57,8.31 -27.55,8.31 -8.72,0 -16.54,-1.96 -23.43,-5.88 -6.88,-3.92 -12.28,-9.49 -16.2,-16.71 -3.92,-7.22 -5.88,-15.59 -5.88,-25.11 0,-9.52 1.9,-17.86 5.71,-25.03 3.81,-7.16 9.15,-12.67 16.04,-16.54 6.89,-3.86 14.81,-5.79 23.76,-5.79 8.74,0 16.47,1.9 23.19,5.71 6.71,3.81 11.89,9.03 15.53,15.7 3.64,6.66 5.46,14.19 5.46,22.59zm-15.79 -3.19c0,-5.82 -1.29,-10.83 -3.87,-15.03 -2.57,-4.2 -6.06,-7.4 -10.49,-9.58 -4.42,-2.18 -9.32,-3.27 -14.7,-3.27 -7.72,0 -14.3,2.47 -19.73,7.39 -5.43,4.92 -8.54,11.76 -9.32,20.49l58.1 0zm80.78 -40.97c11.19,0 20.27,3.38 27.21,10.16 6.94,6.77 10.41,16.55 10.41,29.31l0 54.24 -15.12 0 0 -52.06c0,-9.18 -2.29,-16.21 -6.89,-21.07 -4.58,-4.87 -10.85,-7.31 -18.81,-7.31 -8.05,0 -14.46,2.51 -19.23,7.56 -4.76,5.03 -7.14,12.36 -7.14,21.99l0 50.89 -15.28 0 0 -92.03 15.28 0 0 13.1c3.03,-4.7 7.14,-8.34 12.35,-10.92 5.21,-2.58 10.95,-3.86 17.22,-3.86zm56.93 47.35c0,-9.41 1.9,-17.67 5.7,-24.77 3.81,-7.11 9.05,-12.62 15.71,-16.55 6.66,-3.92 14.14,-5.87 22.42,-5.87 7.17,0 13.83,1.65 19.99,4.95 6.16,3.3 10.86,7.64 14.1,13.02l0 -48.7 15.46 0 0 124.27 -15.46 0 0 -17.3c-3.02,5.49 -7.5,9.99 -13.43,13.52 -5.93,3.53 -12.88,5.29 -20.82,5.29 -8.18,0 -15.6,-2.02 -22.26,-6.05 -6.66,-4.02 -11.9,-9.69 -15.71,-16.96 -3.8,-7.28 -5.7,-15.56 -5.7,-24.86zm77.91 0.17c0,-6.95 -1.4,-12.99 -4.19,-18.14 -2.81,-5.15 -6.58,-9.1 -11.34,-11.84 -4.76,-2.75 -10,-4.11 -15.7,-4.11 -5.72,0 -10.92,1.34 -15.62,4.03 -4.71,2.68 -8.46,6.61 -11.26,11.76 -2.79,5.14 -4.19,11.19 -4.19,18.13 0,7.06 1.4,13.19 4.19,18.4 2.8,5.2 6.55,9.17 11.26,11.92 4.7,2.74 9.9,4.11 15.62,4.11 5.7,0 10.94,-1.37 15.7,-4.11 4.76,-2.75 8.53,-6.72 11.34,-11.92 2.79,-5.21 4.19,-11.29 4.19,-18.23zm81.45 47.69c-8.62,0 -16.43,-1.96 -23.43,-5.88 -6.99,-3.92 -12.48,-9.49 -16.46,-16.71 -3.97,-7.22 -5.96,-15.59 -5.96,-25.11 0,-9.4 2.04,-17.72 6.13,-24.94 4.09,-7.22 9.66,-12.76 16.71,-16.63 7.06,-3.86 14.95,-5.79 23.68,-5.79 8.74,0 16.63,1.93 23.69,5.79 7.05,3.87 12.63,9.38 16.71,16.54 4.09,7.17 6.13,15.51 6.13,25.03 0,9.52 -2.1,17.89 -6.3,25.11 -4.2,7.22 -9.88,12.79 -17.04,16.71 -7.18,3.92 -15.12,5.88 -23.86,5.88zm0 -13.44c5.49,0 10.64,-1.29 15.46,-3.86 4.81,-2.58 8.7,-6.44 11.67,-11.59 2.97,-5.15 4.45,-11.42 4.45,-18.81 0,-7.39 -1.45,-13.66 -4.37,-18.81 -2.91,-5.16 -6.71,-8.99 -11.42,-11.5 -4.7,-2.52 -9.8,-3.78 -15.28,-3.78 -5.6,0 -10.73,1.26 -15.37,3.78 -4.65,2.51 -8.37,6.34 -11.17,11.5 -2.8,5.15 -4.19,11.42 -4.19,18.81 0,7.5 1.36,13.82 4.1,18.98 2.75,5.15 6.42,8.98 11,11.51 4.6,2.52 9.63,3.77 15.12,3.77zm-590.37 203.07c-8.62,0 -16.43,-1.97 -23.43,-5.88 -7,-3.92 -12.48,-9.49 -16.46,-16.71 -3.97,-7.23 -5.96,-15.6 -5.96,-25.11 0,-9.41 2.04,-17.73 6.13,-24.94 4.08,-7.23 9.66,-12.77 16.71,-16.63 7.06,-3.87 14.95,-5.79 23.68,-5.79 8.74,0 16.63,1.92 23.69,5.79 7.05,3.86 12.62,9.38 16.71,16.54 4.09,7.16 6.13,15.51 6.13,25.03 0,9.51 -2.11,17.88 -6.3,25.11 -4.2,7.22 -9.88,12.79 -17.04,16.71 -7.18,3.91 -15.12,5.88 -23.86,5.88zm0 -13.44c5.49,0 10.64,-1.29 15.46,-3.86 4.81,-2.58 8.7,-6.45 11.67,-11.59 2.97,-5.15 4.44,-11.42 4.44,-18.81 0,-7.39 -1.45,-13.66 -4.36,-18.81 -2.91,-5.16 -6.72,-8.99 -11.42,-11.51 -4.7,-2.52 -9.8,-3.77 -15.28,-3.77 -5.61,0 -10.73,1.25 -15.37,3.77 -4.65,2.52 -8.38,6.35 -11.17,11.51 -2.8,5.15 -4.2,11.42 -4.2,18.81 0,7.5 1.37,13.82 4.11,18.98 2.75,5.15 6.42,8.98 11,11.5 4.6,2.52 9.63,3.78 15.12,3.78zm106.48 -34.43c0,-9.41 1.9,-17.67 5.7,-24.77 3.81,-7.11 9.05,-12.63 15.71,-16.55 6.66,-3.92 14.14,-5.87 22.42,-5.87 7.95,0 14.92,1.76 20.91,5.29 5.99,3.52 10.39,7.86 13.18,13.01l0 -16.79 15.46 0 0 135.68 -15.46 0 0 -60.62c-2.91,5.15 -7.39,9.52 -13.43,13.1 -6.04,3.59 -13.1,5.38 -21.16,5.38 -8.06,0 -15.4,-2.02 -22.01,-6.05 -6.6,-4.03 -11.81,-9.69 -15.62,-16.97 -3.8,-7.27 -5.7,-15.56 -5.7,-24.85zm77.91 0.17c0,-6.95 -1.4,-12.99 -4.19,-18.14 -2.81,-5.15 -6.58,-9.1 -11.34,-11.85 -4.76,-2.74 -10,-4.1 -15.7,-4.1 -5.72,0 -10.92,1.33 -15.62,4.02 -4.71,2.69 -8.46,6.61 -11.26,11.76 -2.79,5.15 -4.19,11.2 -4.19,18.14 0,7.05 1.4,13.18 4.19,18.39 2.8,5.2 6.55,9.18 11.26,11.93 4.7,2.74 9.9,4.11 15.62,4.11 5.7,0 10.94,-1.37 15.7,-4.11 4.76,-2.75 8.53,-6.73 11.34,-11.93 2.79,-5.21 4.19,-11.29 4.19,-18.22zm122.93 -45.84l0 92.02 -15.29 0 0 -13.6c-2.91,4.7 -6.96,8.37 -12.17,11 -5.21,2.63 -10.95,3.95 -17.21,3.95 -7.18,0 -13.61,-1.48 -19.33,-4.45 -5.7,-2.97 -10.21,-7.42 -13.52,-13.36 -3.3,-5.93 -4.95,-13.16 -4.95,-21.66l0 -53.9 15.11 0 0 51.88c0,9.07 2.31,16.04 6.89,20.91 4.59,4.87 10.86,7.31 18.82,7.31 8.17,0 14.6,-2.52 19.31,-7.56 4.71,-5.04 7.05,-12.38 7.05,-22l0 -50.54 15.29 0zm109.83 42.48c0,2.91 -0.17,5.99 -0.5,9.24l-73.55 0c0.55,9.06 3.66,16.15 9.31,21.24 5.66,5.09 12.52,7.65 20.58,7.65 6.6,0 12.12,-1.55 16.55,-4.62 4.42,-3.09 7.53,-7.2 9.31,-12.35l16.47 0c-2.47,8.85 -7.39,16.04 -14.79,21.59 -7.39,5.54 -16.57,8.31 -27.54,8.31 -8.73,0 -16.55,-1.97 -23.43,-5.88 -6.89,-3.92 -12.29,-9.49 -16.21,-16.71 -3.92,-7.23 -5.87,-15.6 -5.87,-25.11 0,-9.52 1.9,-17.87 5.7,-25.03 3.81,-7.16 9.15,-12.68 16.04,-16.54 6.89,-3.87 14.81,-5.79 23.77,-5.79 8.73,0 16.46,1.9 23.18,5.7 6.71,3.81 11.9,9.04 15.54,15.71 3.63,6.66 5.45,14.19 5.45,22.59zm-15.79 -3.19c0,-5.83 -1.28,-10.84 -3.86,-15.03 -2.57,-4.2 -6.07,-7.4 -10.5,-9.58 -4.42,-2.18 -9.32,-3.27 -14.69,-3.27 -7.73,0 -14.3,2.46 -19.74,7.39 -5.43,4.92 -8.54,11.75 -9.32,20.49l58.1 0zm113.36 54.24c-7.06,0 -13.38,-1.21 -18.98,-3.62 -5.6,-2.4 -10.02,-5.76 -13.27,-10.07 -3.24,-4.32 -5.03,-9.27 -5.37,-14.87l15.78 0c0.46,4.6 2.61,8.35 6.47,11.26 3.87,2.91 8.93,4.37 15.2,4.37 5.83,0 10.42,-1.3 13.77,-3.87 3.36,-2.58 5.05,-5.83 5.05,-9.74 0,-4.03 -1.8,-7.03 -5.38,-8.99 -3.58,-1.95 -9.12,-3.89 -16.63,-5.79 -6.83,-1.79 -12.4,-3.61 -16.71,-5.46 -4.31,-1.84 -8.01,-4.59 -11.08,-8.23 -3.09,-3.64 -4.62,-8.43 -4.62,-14.36 0,-4.7 1.4,-9.01 4.19,-12.94 2.81,-3.91 6.78,-7.02 11.93,-9.31 5.15,-2.3 11.03,-3.44 17.64,-3.44 10.18,0 18.42,2.57 24.69,7.72 6.27,5.15 9.63,12.21 10.07,21.16l-15.28 0c-0.33,-4.81 -2.27,-8.68 -5.8,-11.59 -3.52,-2.91 -8.25,-4.36 -14.18,-4.36 -5.49,0 -9.86,1.17 -13.11,3.52 -3.25,2.36 -4.87,5.43 -4.87,9.24 0,3.02 0.98,5.52 2.94,7.48 1.96,1.95 4.42,3.52 7.39,4.7 2.96,1.18 7.08,2.49 12.34,3.95 6.61,1.79 11.99,3.55 16.13,5.29 4.14,1.73 7.69,4.34 10.66,7.8 2.97,3.47 4.51,8.01 4.62,13.61 0,5.03 -1.4,9.58 -4.19,13.61 -2.81,4.02 -6.75,7.19 -11.85,9.49 -5.09,2.29 -10.95,3.44 -17.55,3.44zm139.05 -51.05c0,2.91 -0.17,5.99 -0.5,9.24l-73.55 0c0.55,9.06 3.66,16.15 9.32,21.24 5.65,5.09 12.51,7.65 20.57,7.65 6.6,0 12.12,-1.55 16.55,-4.62 4.42,-3.09 7.53,-7.2 9.31,-12.35l16.47 0c-2.47,8.85 -7.39,16.04 -14.79,21.59 -7.39,5.54 -16.57,8.31 -27.54,8.31 -8.73,0 -16.55,-1.97 -23.43,-5.88 -6.89,-3.92 -12.29,-9.49 -16.2,-16.71 -3.93,-7.23 -5.88,-15.6 -5.88,-25.11 0,-9.52 1.9,-17.87 5.7,-25.03 3.81,-7.16 9.15,-12.68 16.04,-16.54 6.89,-3.87 14.81,-5.79 23.77,-5.79 8.73,0 16.46,1.9 23.18,5.7 6.71,3.81 11.9,9.04 15.54,15.71 3.63,6.66 5.45,14.19 5.45,22.59zm-15.79 -3.19c0,-5.83 -1.28,-10.84 -3.86,-15.03 -2.57,-4.2 -6.07,-7.4 -10.5,-9.58 -4.42,-2.18 -9.32,-3.27 -14.69,-3.27 -7.73,0 -14.3,2.46 -19.74,7.39 -5.43,4.92 -8.54,11.75 -9.32,20.49l58.1 0zm-517.91 192.81c0,2.91 -0.17,5.99 -0.51,9.24l-73.55 0c0.56,9.07 3.67,16.15 9.32,21.25 5.65,5.09 12.51,7.64 20.57,7.64 6.61,0 12.12,-1.54 16.55,-4.62 4.42,-3.08 7.53,-7.2 9.32,-12.35l16.46 0c-2.46,8.85 -7.39,16.04 -14.78,21.59 -7.39,5.54 -16.57,8.31 -27.55,8.31 -8.72,0 -16.54,-1.96 -23.43,-5.88 -6.88,-3.91 -12.28,-9.49 -16.2,-16.7 -3.92,-7.23 -5.88,-15.6 -5.88,-25.12 0,-9.51 1.9,-17.86 5.71,-25.02 3.81,-7.17 9.15,-12.68 16.04,-16.54 6.89,-3.87 14.81,-5.8 23.76,-5.8 8.74,0 16.47,1.91 23.19,5.71 6.71,3.81 11.89,9.04 15.53,15.71 3.64,6.66 5.46,14.19 5.46,22.58zm-15.79 -3.18c0,-5.83 -1.29,-10.84 -3.87,-15.03 -2.57,-4.21 -6.07,-7.4 -10.49,-9.58 -4.42,-2.18 -9.32,-3.28 -14.7,-3.28 -7.72,0 -14.3,2.47 -19.73,7.39 -5.43,4.93 -8.54,11.76 -9.32,20.5l58.1 0zm80.78 -40.98c11.19,0 20.27,3.39 27.21,10.16 6.94,6.77 10.41,16.55 10.41,29.32l0 54.23 -15.12 0 0 -52.06c0,-9.17 -2.29,-16.21 -6.89,-21.07 -4.58,-4.87 -10.85,-7.31 -18.81,-7.31 -8.05,0 -14.46,2.52 -19.23,7.56 -4.76,5.04 -7.14,12.37 -7.14,22l0 50.88 -15.28 0 0 -92.03 15.28 0 0 13.1c3.03,-4.7 7.14,-8.34 12.35,-10.92 5.21,-2.57 10.95,-3.86 17.22,-3.86zm95.22 95.22c-7.06,0 -13.38,-1.21 -18.98,-3.61 -5.6,-2.41 -10.02,-5.77 -13.27,-10.07 -3.25,-4.32 -5.04,-9.27 -5.37,-14.87l15.78 0c0.45,4.59 2.61,8.35 6.47,11.25 3.87,2.91 8.93,4.37 15.2,4.37 5.82,0 10.42,-1.29 13.77,-3.86 3.36,-2.58 5.04,-5.83 5.04,-9.74 0,-4.03 -1.79,-7.03 -5.37,-8.99 -3.59,-1.96 -9.13,-3.89 -16.63,-5.79 -6.83,-1.79 -12.4,-3.62 -16.71,-5.47 -4.31,-1.84 -8.01,-4.58 -11.08,-8.22 -3.09,-3.65 -4.62,-8.43 -4.62,-14.36 0,-4.71 1.39,-9.01 4.19,-12.94 2.8,-3.92 6.78,-7.02 11.93,-9.32 5.15,-2.29 11.03,-3.44 17.64,-3.44 10.18,0 18.41,2.57 24.68,7.72 6.27,5.15 9.63,12.21 10.08,21.17l-15.29 0c-0.33,-4.82 -2.26,-8.68 -5.79,-11.59 -3.52,-2.92 -8.26,-4.37 -14.19,-4.37 -5.48,0 -9.85,1.18 -13.1,3.53 -3.25,2.35 -4.87,5.43 -4.87,9.24 0,3.02 0.98,5.51 2.93,7.47 1.97,1.96 4.43,3.53 7.39,4.7 2.97,1.18 7.09,2.49 12.35,3.95 6.61,1.79 11.98,3.56 16.13,5.29 4.14,1.74 7.69,4.34 10.66,7.81 2.97,3.47 4.51,8 4.62,13.61 0,5.03 -1.4,9.57 -4.2,13.6 -2.8,4.03 -6.74,7.19 -11.84,9.49 -5.1,2.3 -10.95,3.44 -17.55,3.44zm62.97 -108.49c-2.91,0 -5.37,-1.01 -7.39,-3.02 -2.01,-2.01 -3.02,-4.48 -3.02,-7.39 0,-2.91 1.01,-5.37 3.02,-7.39 2.02,-2.01 4.48,-3.02 7.39,-3.02 2.81,0 5.19,1.01 7.14,3.02 1.96,2.02 2.94,4.48 2.94,7.39 0,2.91 -0.98,5.38 -2.94,7.39 -1.95,2.01 -4.33,3.02 -7.14,3.02zm7.39 14.95l0 92.03 -15.28 0 0 -92.03 15.28 0zm70.88 -1.68c11.19,0 20.26,3.39 27.2,10.16 6.95,6.77 10.41,16.55 10.41,29.32l0 54.23 -15.12 0 0 -52.06c0,-9.17 -2.29,-16.21 -6.88,-21.07 -4.59,-4.87 -10.86,-7.31 -18.81,-7.31 -8.06,0 -14.47,2.52 -19.23,7.56 -4.76,5.04 -7.14,12.37 -7.14,22l0 50.88 -15.28 0 0 -92.03 15.28 0 0 13.1c3.03,-4.7 7.14,-8.34 12.35,-10.92 5.21,-2.57 10.95,-3.86 17.22,-3.86zm56.92 47.36c0,-9.41 1.9,-17.67 5.71,-24.78 3.81,-7.11 9.05,-12.62 15.71,-16.55 6.66,-3.91 14.07,-5.87 22.25,-5.87 8.06,0 15.06,1.73 20.99,5.21 5.94,3.47 10.36,7.84 13.27,13.1l0 -16.8 15.45 0 0 92.03 -15.45 0 0 -17.13c-3.02,5.37 -7.53,9.83 -13.52,13.35 -5.99,3.53 -12.96,5.29 -20.91,5.29 -8.17,0 -15.56,-2.01 -22.17,-6.04 -6.61,-4.03 -11.81,-9.69 -15.62,-16.97 -3.81,-7.28 -5.71,-15.56 -5.71,-24.85zm77.92 0.16c0,-6.94 -1.4,-12.99 -4.2,-18.14 -2.8,-5.15 -6.58,-9.1 -11.34,-11.84 -4.76,-2.74 -9.99,-4.11 -15.7,-4.11 -5.71,0 -10.91,1.34 -15.62,4.03 -4.7,2.68 -8.46,6.61 -11.25,11.76 -2.8,5.15 -4.2,11.19 -4.2,18.14 0,7.05 1.4,13.18 4.2,18.39 2.79,5.2 6.55,9.18 11.25,11.92 4.71,2.75 9.91,4.12 15.62,4.12 5.71,0 10.94,-1.37 15.7,-4.12 4.76,-2.74 8.54,-6.72 11.34,-11.92 2.8,-5.21 4.2,-11.29 4.2,-18.23z"/>
   <path class="fil12" d="M4629.53 6991.36l0 39.14 42.65 0 0 12.59 -42.65 0 0 40.31 47.7 0 0 12.6 -62.98 0 0 -117.23 62.98 0 0 12.6 -47.7 0zm115.72 10.92c11.19,0 20.26,3.39 27.2,10.16 6.95,6.77 10.41,16.55 10.41,29.31l0 54.24 -15.11 0 0 -52.06c0,-9.18 -2.3,-16.21 -6.89,-21.07 -4.59,-4.87 -10.86,-7.31 -18.81,-7.31 -8.06,0 -14.47,2.51 -19.23,7.56 -4.76,5.04 -7.14,12.37 -7.14,22l0 50.88 -15.28 0 0 -92.03 15.28 0 0 13.1c3.03,-4.7 7.14,-8.34 12.35,-10.92 5.21,-2.58 10.95,-3.86 17.22,-3.86zm95.22 95.22c-7.06,0 -13.38,-1.21 -18.98,-3.61 -5.6,-2.41 -10.02,-5.77 -13.27,-10.08 -3.25,-4.31 -5.04,-9.26 -5.38,-14.86l15.79 0c0.45,4.59 2.6,8.34 6.47,11.25 3.86,2.91 8.92,4.37 15.19,4.37 5.83,0 10.42,-1.29 13.78,-3.86 3.36,-2.58 5.04,-5.83 5.04,-9.75 0,-4.03 -1.8,-7.02 -5.37,-8.98 -3.59,-1.96 -9.13,-3.89 -16.63,-5.8 -6.84,-1.78 -12.4,-3.61 -16.72,-5.46 -4.31,-1.84 -8,-4.58 -11.08,-8.22 -3.08,-3.65 -4.62,-8.43 -4.62,-14.36 0,-4.71 1.4,-9.02 4.2,-12.94 2.8,-3.92 6.78,-7.03 11.93,-9.32 5.15,-2.29 11.03,-3.44 17.63,-3.44 10.19,0 18.42,2.57 24.69,7.72 6.27,5.15 9.63,12.21 10.07,21.16l-15.28 0c-0.33,-4.81 -2.27,-8.67 -5.79,-11.58 -3.53,-2.92 -8.26,-4.37 -14.19,-4.37 -5.49,0 -9.86,1.17 -13.1,3.53 -3.25,2.35 -4.87,5.42 -4.87,9.24 0,3.02 0.98,5.51 2.93,7.47 1.96,1.96 4.43,3.53 7.39,4.7 2.97,1.18 7.09,2.49 12.35,3.95 6.61,1.79 11.98,3.55 16.12,5.29 4.14,1.74 7.7,4.34 10.67,7.81 2.97,3.47 4.5,8 4.62,13.6 0,5.04 -1.4,9.58 -4.2,13.61 -2.8,4.03 -6.75,7.19 -11.84,9.49 -5.1,2.29 -10.95,3.44 -17.55,3.44zm62.97 -108.49c-2.91,0 -5.38,-1.01 -7.39,-3.02 -2.02,-2.02 -3.02,-4.48 -3.02,-7.39 0,-2.91 1,-5.38 3.02,-7.39 2.01,-2.02 4.48,-3.02 7.39,-3.02 2.8,0 5.18,1 7.14,3.02 1.96,2.01 2.94,4.48 2.94,7.39 0,2.91 -0.98,5.37 -2.94,7.39 -1.96,2.01 -4.34,3.02 -7.14,3.02zm7.39 14.95l0 92.03 -15.28 0 0 -92.03 15.28 0zm70.87 -1.68c11.19,0 20.27,3.39 27.21,10.16 6.94,6.77 10.41,16.55 10.41,29.31l0 54.24 -15.12 0 0 -52.06c0,-9.18 -2.29,-16.21 -6.89,-21.07 -4.58,-4.87 -10.85,-7.31 -18.8,-7.31 -8.06,0 -14.47,2.51 -19.24,7.56 -4.76,5.04 -7.14,12.37 -7.14,22l0 50.88 -15.28 0 0 -92.03 15.28 0 0 13.1c3.04,-4.7 7.14,-8.34 12.35,-10.92 5.21,-2.58 10.95,-3.86 17.22,-3.86zm56.93 47.36c0,-9.42 1.9,-17.67 5.7,-24.78 3.82,-7.11 9.05,-12.62 15.71,-16.55 6.66,-3.91 14.08,-5.87 22.26,-5.87 8.06,0 15.06,1.73 20.99,5.2 5.94,3.48 10.36,7.84 13.26,13.11l0 -16.8 15.46 0 0 92.03 -15.46 0 0 -17.13c-3.02,5.37 -7.52,9.83 -13.52,13.35 -5.99,3.53 -12.95,5.29 -20.91,5.29 -8.17,0 -15.56,-2.01 -22.16,-6.04 -6.61,-4.03 -11.81,-9.69 -15.63,-16.97 -3.8,-7.28 -5.7,-15.56 -5.7,-24.85zm77.91 0.16c0,-6.95 -1.39,-12.99 -4.19,-18.14 -2.8,-5.15 -6.58,-9.1 -11.34,-11.84 -4.76,-2.75 -9.99,-4.11 -15.7,-4.11 -5.71,0 -10.91,1.34 -15.62,4.03 -4.71,2.68 -8.46,6.61 -11.25,11.76 -2.8,5.15 -4.2,11.19 -4.2,18.14 0,7.05 1.4,13.18 4.2,18.39 2.79,5.2 6.54,9.18 11.25,11.92 4.71,2.74 9.91,4.12 15.62,4.12 5.71,0 10.94,-1.38 15.7,-4.12 4.76,-2.74 8.54,-6.72 11.34,-11.92 2.8,-5.21 4.19,-11.29 4.19,-18.23zm86.16 -47.52c11.19,0 20.27,3.39 27.21,10.16 6.94,6.77 10.41,16.55 10.41,29.31l0 54.24 -15.12 0 0 -52.06c0,-9.18 -2.29,-16.21 -6.89,-21.07 -4.58,-4.87 -10.85,-7.31 -18.8,-7.31 -8.06,0 -14.47,2.51 -19.24,7.56 -4.76,5.04 -7.14,12.37 -7.14,22l0 50.88 -15.28 0 0 -92.03 15.28 0 0 13.1c3.03,-4.7 7.14,-8.34 12.35,-10.92 5.21,-2.58 10.95,-3.86 17.22,-3.86zm56.93 47.36c0,-9.42 1.9,-17.67 5.7,-24.78 3.82,-7.11 9.05,-12.62 15.71,-16.55 6.66,-3.91 14.14,-5.87 22.42,-5.87 7.17,0 13.83,1.65 19.99,4.95 6.16,3.3 10.86,7.64 14.1,13.02l0 -48.7 15.46 0 0 124.27 -15.46 0 0 -17.3c-3.02,5.49 -7.5,10 -13.43,13.52 -5.93,3.53 -12.88,5.29 -20.82,5.29 -8.18,0 -15.6,-2.01 -22.26,-6.04 -6.66,-4.03 -11.89,-9.69 -15.71,-16.97 -3.8,-7.28 -5.7,-15.56 -5.7,-24.85zm77.91 0.16c0,-6.95 -1.39,-12.99 -4.19,-18.14 -2.81,-5.15 -6.58,-9.1 -11.34,-11.84 -4.76,-2.75 -10,-4.11 -15.7,-4.11 -5.71,0 -10.92,1.34 -15.62,4.03 -4.71,2.68 -8.46,6.61 -11.26,11.76 -2.79,5.15 -4.19,11.19 -4.19,18.14 0,7.05 1.4,13.18 4.19,18.39 2.8,5.2 6.55,9.18 11.26,11.92 4.7,2.74 9.91,4.12 15.62,4.12 5.7,0 10.94,-1.38 15.7,-4.12 4.76,-2.74 8.53,-6.72 11.34,-11.92 2.8,-5.21 4.19,-11.29 4.19,-18.23zm81.45 47.69c-8.62,0 -16.43,-1.96 -23.42,-5.88 -7,-3.91 -12.49,-9.49 -16.47,-16.71 -3.97,-7.22 -5.96,-15.59 -5.96,-25.11 0,-9.4 2.05,-17.72 6.14,-24.94 4.08,-7.22 9.65,-12.76 16.7,-16.63 7.06,-3.86 14.96,-5.79 23.68,-5.79 8.74,0 16.63,1.93 23.69,5.79 7.05,3.87 12.63,9.38 16.71,16.55 4.09,7.16 6.13,15.5 6.13,25.02 0,9.52 -2.1,17.89 -6.3,25.11 -4.2,7.22 -9.88,12.8 -17.04,16.71 -7.18,3.92 -15.12,5.88 -23.86,5.88zm0 -13.43c5.49,0 10.64,-1.3 15.46,-3.87 4.81,-2.58 8.7,-6.44 11.67,-11.59 2.97,-5.15 4.45,-11.42 4.45,-18.81 0,-7.39 -1.45,-13.66 -4.37,-18.81 -2.91,-5.15 -6.71,-8.98 -11.42,-11.5 -4.7,-2.52 -9.8,-3.78 -15.28,-3.78 -5.6,0 -10.73,1.26 -15.37,3.78 -4.65,2.52 -8.37,6.35 -11.17,11.5 -2.8,5.15 -4.19,11.42 -4.19,18.81 0,7.5 1.36,13.83 4.1,18.98 2.75,5.15 6.42,8.98 11.01,11.51 4.59,2.52 9.63,3.78 15.11,3.78zm-685.59 203.06c-8.62,0 -16.43,-1.97 -23.43,-5.88 -7,-3.92 -12.48,-9.49 -16.46,-16.71 -3.97,-7.22 -5.96,-15.59 -5.96,-25.11 0,-9.41 2.04,-17.72 6.13,-24.94 4.08,-7.22 9.66,-12.76 16.71,-16.63 7.06,-3.86 14.95,-5.79 23.68,-5.79 8.74,0 16.63,1.93 23.69,5.79 7.05,3.87 12.62,9.38 16.7,16.54 4.09,7.17 6.14,15.51 6.14,25.03 0,9.52 -2.11,17.89 -6.3,25.11 -4.2,7.22 -9.88,12.79 -17.05,16.71 -7.17,3.91 -15.11,5.88 -23.85,5.88zm0 -13.44c5.49,0 10.64,-1.29 15.46,-3.86 4.81,-2.58 8.7,-6.44 11.67,-11.59 2.97,-5.15 4.44,-11.42 4.44,-18.81 0,-7.39 -1.45,-13.66 -4.36,-18.81 -2.91,-5.16 -6.72,-8.99 -11.42,-11.51 -4.7,-2.51 -9.8,-3.77 -15.29,-3.77 -5.6,0 -10.72,1.26 -15.37,3.77 -4.64,2.52 -8.37,6.35 -11.16,11.51 -2.8,5.15 -4.2,11.42 -4.2,18.81 0,7.5 1.37,13.82 4.11,18.98 2.75,5.15 6.42,8.98 11,11.51 4.6,2.51 9.63,3.77 15.12,3.77zm106.48 -34.43c0,-9.41 1.9,-17.67 5.7,-24.77 3.81,-7.11 9.05,-12.63 15.71,-16.55 6.66,-3.92 14.14,-5.87 22.42,-5.87 7.95,0 14.92,1.76 20.91,5.29 5.99,3.52 10.39,7.86 13.18,13.01l0 -16.79 15.46 0 0 135.69 -15.46 0 0 -60.63c-2.91,5.16 -7.39,9.52 -13.43,13.1 -6.05,3.59 -13.11,5.38 -21.16,5.38 -8.06,0 -15.4,-2.02 -22.01,-6.05 -6.61,-4.03 -11.81,-9.69 -15.62,-16.96 -3.8,-7.28 -5.7,-15.57 -5.7,-24.86zm77.91 0.17c0,-6.95 -1.4,-12.99 -4.19,-18.14 -2.81,-5.15 -6.58,-9.1 -11.34,-11.85 -4.76,-2.74 -10,-4.1 -15.7,-4.1 -5.72,0 -10.92,1.33 -15.62,4.03 -4.71,2.68 -8.46,6.6 -11.26,11.75 -2.79,5.15 -4.19,11.2 -4.19,18.14 0,7.05 1.4,13.19 4.19,18.4 2.8,5.2 6.55,9.17 11.26,11.92 4.7,2.74 9.9,4.11 15.62,4.11 5.7,0 10.94,-1.37 15.7,-4.11 4.76,-2.75 8.53,-6.72 11.34,-11.92 2.79,-5.21 4.19,-11.29 4.19,-18.23zm122.93 -45.84l0 92.03 -15.29 0 0 -13.61c-2.91,4.71 -6.96,8.37 -12.18,11 -5.2,2.63 -10.94,3.95 -17.21,3.95 -7.17,0 -13.6,-1.48 -19.32,-4.45 -5.7,-2.97 -10.21,-7.42 -13.52,-13.36 -3.3,-5.93 -4.95,-13.15 -4.95,-21.66l0 -53.9 15.11 0 0 51.88c0,9.08 2.3,16.04 6.89,20.91 4.59,4.87 10.86,7.31 18.82,7.31 8.17,0 14.6,-2.51 19.31,-7.56 4.7,-5.04 7.05,-12.37 7.05,-21.99l0 -50.55 15.29 0zm109.83 42.48c0,2.91 -0.17,5.99 -0.51,9.24l-73.54 0c0.55,9.06 3.66,16.15 9.31,21.25 5.66,5.08 12.52,7.64 20.58,7.64 6.6,0 12.12,-1.55 16.55,-4.62 4.42,-3.09 7.52,-7.2 9.31,-12.35l16.47 0c-2.47,8.85 -7.39,16.04 -14.79,21.59 -7.39,5.54 -16.57,8.31 -27.54,8.31 -8.73,0 -16.55,-1.97 -23.43,-5.88 -6.89,-3.92 -12.29,-9.49 -16.21,-16.71 -3.92,-7.22 -5.87,-15.59 -5.87,-25.11 0,-9.52 1.9,-17.86 5.7,-25.03 3.81,-7.16 9.15,-12.67 16.04,-16.54 6.89,-3.86 14.81,-5.79 23.77,-5.79 8.73,0 16.46,1.9 23.18,5.7 6.71,3.82 11.9,9.04 15.53,15.71 3.64,6.66 5.46,14.19 5.46,22.59zm-15.79 -3.19c0,-5.83 -1.28,-10.84 -3.86,-15.03 -2.57,-4.2 -6.07,-7.4 -10.5,-9.58 -4.42,-2.18 -9.32,-3.27 -14.69,-3.27 -7.73,0 -14.31,2.46 -19.74,7.39 -5.43,4.92 -8.54,11.76 -9.32,20.49l58.1 0zm113.36 54.24c-7.06,0 -13.38,-1.21 -18.98,-3.62 -5.6,-2.4 -10.02,-5.76 -13.27,-10.07 -3.25,-4.31 -5.03,-9.26 -5.37,-14.86l15.78 0c0.46,4.59 2.61,8.34 6.47,11.25 3.87,2.91 8.93,4.37 15.2,4.37 5.83,0 10.42,-1.3 13.77,-3.87 3.36,-2.58 5.05,-5.82 5.05,-9.74 0,-4.03 -1.8,-7.02 -5.38,-8.99 -3.59,-1.95 -9.13,-3.89 -16.63,-5.79 -6.83,-1.79 -12.4,-3.61 -16.71,-5.46 -4.31,-1.84 -8.01,-4.59 -11.08,-8.22 -3.09,-3.65 -4.62,-8.44 -4.62,-14.37 0,-4.7 1.39,-9.01 4.19,-12.94 2.81,-3.91 6.78,-7.02 11.93,-9.31 5.15,-2.29 11.03,-3.44 17.64,-3.44 10.18,0 18.42,2.57 24.69,7.72 6.26,5.15 9.63,12.21 10.07,21.16l-15.28 0c-0.33,-4.81 -2.27,-8.67 -5.8,-11.58 -3.52,-2.92 -8.25,-4.37 -14.19,-4.37 -5.48,0 -9.85,1.17 -13.1,3.52 -3.25,2.36 -4.87,5.43 -4.87,9.24 0,3.03 0.98,5.52 2.93,7.48 1.97,1.95 4.43,3.53 7.39,4.7 2.97,1.18 7.09,2.49 12.35,3.95 6.61,1.79 11.99,3.55 16.13,5.29 4.14,1.73 7.69,4.34 10.66,7.8 2.97,3.48 4.51,8.01 4.62,13.61 0,5.04 -1.4,9.58 -4.19,13.61 -2.81,4.03 -6.75,7.19 -11.85,9.49 -5.1,2.29 -10.95,3.44 -17.55,3.44zm139.05 -51.05c0,2.91 -0.17,5.99 -0.51,9.24l-73.54 0c0.55,9.06 3.66,16.15 9.31,21.25 5.66,5.08 12.52,7.64 20.58,7.64 6.6,0 12.12,-1.55 16.55,-4.62 4.42,-3.09 7.52,-7.2 9.31,-12.35l16.47 0c-2.47,8.85 -7.39,16.04 -14.79,21.59 -7.39,5.54 -16.57,8.31 -27.54,8.31 -8.73,0 -16.55,-1.97 -23.43,-5.88 -6.89,-3.92 -12.29,-9.49 -16.21,-16.71 -3.92,-7.22 -5.87,-15.59 -5.87,-25.11 0,-9.52 1.9,-17.86 5.7,-25.03 3.81,-7.16 9.15,-12.67 16.04,-16.54 6.89,-3.86 14.81,-5.79 23.77,-5.79 8.73,0 16.46,1.9 23.18,5.7 6.71,3.82 11.9,9.04 15.54,15.71 3.63,6.66 5.45,14.19 5.45,22.59zm-15.79 -3.19c0,-5.83 -1.28,-10.84 -3.86,-15.03 -2.57,-4.2 -6.07,-7.4 -10.5,-9.58 -4.42,-2.18 -9.32,-3.27 -14.69,-3.27 -7.73,0 -14.3,2.46 -19.74,7.39 -5.43,4.92 -8.54,11.76 -9.32,20.49l58.1 0zm-686.27 196.01c0,-9.41 1.9,-17.67 5.71,-24.77 3.81,-7.12 9.05,-12.63 15.71,-16.55 6.66,-3.92 14.07,-5.87 22.25,-5.87 8.06,0 15.06,1.72 20.99,5.2 5.94,3.47 10.36,7.84 13.27,13.1l0 -16.79 15.45 0 0 92.02 -15.45 0 0 -17.13c-3.02,5.38 -7.53,9.83 -13.52,13.36 -5.99,3.52 -12.96,5.28 -20.91,5.28 -8.17,0 -15.56,-2.01 -22.17,-6.04 -6.61,-4.03 -11.81,-9.69 -15.62,-16.97 -3.81,-7.27 -5.71,-15.56 -5.71,-24.85zm77.92 0.17c0,-6.95 -1.4,-12.99 -4.2,-18.14 -2.8,-5.15 -6.58,-9.1 -11.34,-11.85 -4.76,-2.74 -9.99,-4.11 -15.7,-4.11 -5.71,0 -10.91,1.34 -15.62,4.03 -4.7,2.69 -8.46,6.61 -11.25,11.76 -2.8,5.15 -4.2,11.19 -4.2,18.14 0,7.05 1.4,13.18 4.2,18.39 2.79,5.2 6.55,9.18 11.25,11.92 4.71,2.75 9.91,4.12 15.62,4.12 5.71,0 10.94,-1.37 15.7,-4.12 4.76,-2.74 8.54,-6.72 11.34,-11.92 2.8,-5.21 4.2,-11.29 4.2,-18.22zm56.59 -28.89c3.03,-5.27 7.53,-9.66 13.52,-13.19 5.99,-3.52 12.96,-5.28 20.91,-5.28 8.18,0 15.59,1.95 22.25,5.87 6.67,3.92 11.9,9.43 15.71,16.55 3.8,7.1 5.71,15.36 5.71,24.77 0,9.29 -1.91,17.58 -5.71,24.85 -3.81,7.28 -9.04,12.94 -15.71,16.97 -6.66,4.03 -14.07,6.04 -22.25,6.04 -7.84,0 -14.75,-1.76 -20.74,-5.28 -5.99,-3.53 -10.55,-7.92 -13.69,-13.19l0 60.62 -15.29 0 0 -135.68 15.29 0 0 16.96zm62.47 28.72c0,-6.95 -1.4,-12.99 -4.2,-18.14 -2.8,-5.15 -6.57,-9.07 -11.33,-11.76 -4.76,-2.69 -10,-4.03 -15.71,-4.03 -5.6,0 -10.78,1.37 -15.54,4.11 -4.75,2.75 -8.57,6.72 -11.41,11.93 -2.86,5.2 -4.29,11.22 -4.29,18.06 0,6.93 1.43,13.01 4.29,18.22 2.84,5.2 6.66,9.18 11.41,11.92 4.76,2.75 9.94,4.12 15.54,4.12 5.71,0 10.95,-1.37 15.71,-4.12 4.76,-2.74 8.53,-6.72 11.33,-11.92 2.8,-5.21 4.2,-11.34 4.2,-18.39zm51.04 -30.74c2.69,-5.26 6.53,-9.35 11.51,-12.26 4.98,-2.91 11.06,-4.37 18.22,-4.37l0 15.79 -4.02 0c-17.14,0 -25.71,9.3 -25.71,27.88l0 50.04 -15.28 0 0 -92.02 15.28 0 0 14.94zm131.33 27.54c0,2.91 -0.17,6 -0.5,9.24l-73.55 0c0.55,9.07 3.66,16.16 9.31,21.25 5.66,5.09 12.52,7.64 20.58,7.64 6.6,0 12.12,-1.54 16.55,-4.62 4.42,-3.08 7.53,-7.19 9.31,-12.34l16.47 0c-2.47,8.85 -7.39,16.03 -14.79,21.58 -7.39,5.54 -16.57,8.31 -27.54,8.31 -8.73,0 -16.55,-1.96 -23.43,-5.87 -6.89,-3.92 -12.29,-9.5 -16.21,-16.71 -3.92,-7.23 -5.87,-15.6 -5.87,-25.11 0,-9.52 1.9,-17.87 5.7,-25.03 3.81,-7.16 9.15,-12.68 16.04,-16.54 6.89,-3.87 14.81,-5.79 23.77,-5.79 8.73,0 16.46,1.9 23.18,5.7 6.71,3.81 11.9,9.04 15.54,15.71 3.63,6.66 5.45,14.19 5.45,22.58zm-15.79 -3.18c0,-5.83 -1.28,-10.84 -3.86,-15.03 -2.57,-4.21 -6.07,-7.4 -10.5,-9.58 -4.42,-2.18 -9.32,-3.27 -14.69,-3.27 -7.73,0 -14.3,2.46 -19.74,7.39 -5.43,4.92 -8.54,11.75 -9.32,20.49l58.1 0zm80.78 -40.98c11.2,0 20.27,3.39 27.21,10.16 6.95,6.77 10.41,16.55 10.41,29.32l0 54.23 -15.12 0 0 -52.05c0,-9.18 -2.29,-16.22 -6.88,-21.08 -4.59,-4.87 -10.86,-7.31 -18.81,-7.31 -8.06,0 -14.47,2.52 -19.24,7.56 -4.75,5.04 -7.13,12.37 -7.13,22l0 50.88 -15.29 0 0 -92.02 15.29 0 0 13.09c3.03,-4.7 7.13,-8.33 12.34,-10.91 5.21,-2.58 10.95,-3.87 17.22,-3.87zm56.93 47.36c0,-9.41 1.9,-17.67 5.71,-24.77 3.81,-7.12 9.04,-12.63 15.7,-16.55 6.66,-3.92 14.14,-5.87 22.42,-5.87 7.17,0 13.83,1.65 19.99,4.95 6.16,3.3 10.86,7.64 14.11,13.01l0 -48.69 15.45 0 0 124.26 -15.45 0 0 -17.29c-3.03,5.48 -7.51,9.99 -13.44,13.52 -5.93,3.52 -12.87,5.28 -20.82,5.28 -8.18,0 -15.6,-2.01 -22.26,-6.04 -6.66,-4.03 -11.89,-9.69 -15.7,-16.97 -3.81,-7.27 -5.71,-15.56 -5.71,-24.85zm77.92 0.17c0,-6.95 -1.4,-12.99 -4.2,-18.14 -2.8,-5.15 -6.58,-9.1 -11.34,-11.85 -4.76,-2.74 -9.99,-4.11 -15.7,-4.11 -5.71,0 -10.91,1.34 -15.62,4.03 -4.71,2.69 -8.46,6.61 -11.25,11.76 -2.8,5.15 -4.2,11.19 -4.2,18.14 0,7.05 1.4,13.18 4.2,18.39 2.79,5.2 6.54,9.18 11.25,11.92 4.71,2.75 9.91,4.12 15.62,4.12 5.71,0 10.94,-1.37 15.7,-4.12 4.76,-2.74 8.54,-6.72 11.34,-11.92 2.8,-5.21 4.2,-11.29 4.2,-18.22zm125.27 -3.37c0,2.91 -0.17,6 -0.5,9.24l-73.55 0c0.55,9.07 3.66,16.16 9.32,21.25 5.65,5.09 12.51,7.64 20.57,7.64 6.61,0 12.12,-1.54 16.55,-4.62 4.42,-3.08 7.53,-7.19 9.31,-12.34l16.47 0c-2.47,8.85 -7.39,16.03 -14.79,21.58 -7.39,5.54 -16.57,8.31 -27.54,8.31 -8.73,0 -16.55,-1.96 -23.43,-5.87 -6.89,-3.92 -12.29,-9.5 -16.2,-16.71 -3.93,-7.23 -5.88,-15.6 -5.88,-25.11 0,-9.52 1.9,-17.87 5.7,-25.03 3.81,-7.16 9.15,-12.68 16.04,-16.54 6.89,-3.87 14.81,-5.79 23.77,-5.79 8.73,0 16.46,1.9 23.18,5.7 6.71,3.81 11.9,9.04 15.54,15.71 3.63,6.66 5.45,14.19 5.45,22.58zm-15.79 -3.18c0,-5.83 -1.28,-10.84 -3.86,-15.03 -2.57,-4.21 -6.07,-7.4 -10.5,-9.58 -4.42,-2.18 -9.32,-3.27 -14.69,-3.27 -7.73,0 -14.3,2.46 -19.74,7.39 -5.43,4.92 -8.54,11.75 -9.32,20.49l58.1 0z"/>
   <path class="fil13" d="M3412.87 8503.33c-8.47,11.87 -19.2,21 -32.23,27.4 -13.02,6.38 -27.79,8.48 -44.29,6.3 -16.52,-2.17 -33.89,-9.75 -52.11,-22.74l-37.21 -26.51 -60.72 85.22 -44.52 -31.73 158.15 -221.96 81.73 58.23c17.18,12.24 29.7,25.63 37.55,40.18 7.86,14.55 11.1,29.17 9.74,43.85 -1.35,14.7 -6.72,28.62 -16.08,41.75zm-104.94 -26.34c12.3,8.76 23.42,12.45 33.36,11.06 9.94,-1.39 18.53,-7.17 25.79,-17.35 15.41,-21.63 11.02,-41.04 -13.15,-58.27l-35.3 -25.15 -46 64.56 35.31 25.15zm235.98 53.23l-33.4 59.61 80.06 44.84 -21.18 37.83 -80.06 -44.85 -35.3 63.02 90.28 50.57 -21.77 38.84 -137.96 -77.29 133.38 -238.11 137.96 77.28 -21.75 38.83 -90.28 -50.56zm202.75 345.22l-14.41 -121.21 -23.77 -9.96 -41.05 97.95 -50.41 -21.13 105.37 -251.36 94.35 39.56c19.44,8.15 34.58,18.51 45.39,31.09 10.82,12.59 17.21,26.13 19.17,40.64 1.95,14.52 -0.08,28.98 -6.12,43.38 -6.94,16.56 -18.01,29.5 -33.21,38.8 -15.19,9.3 -33.32,12.48 -54.39,9.57l17.41 127.12 -58.32 -24.45zm-22.32 -168.97l42.13 17.66c13.68,5.74 25.27,6.71 34.76,2.92 9.49,-3.78 16.71,-11.54 21.64,-23.32 4.83,-11.52 5.21,-21.87 1.15,-31.06 -4.05,-9.17 -12.92,-16.64 -26.6,-22.38l-42.13 -17.66 -30.95 73.83zm282.21 8.13l-14.76 66.72 89.6 19.82 -9.37 42.31 -89.6 -19.82 -15.6 70.53 101.03 22.36 -9.61 43.45 -154.41 -34.16 58.95 -266.49 154.41 34.16 -9.61 43.45 -101.04 -22.35zm232.28 -3.63l-25.54 271.35 -54.43 -5.12 25.56 -271.35 54.41 5.12zm223.78 281.89l-63.43 -104.27 -25.76 0.81 3.32 106.15 -54.63 1.71 -8.54 -272.41 102.26 -3.21c21.07,-0.66 39.14,2.49 54.2,9.44 15.06,6.95 26.51,16.62 34.32,29.01 7.8,12.38 11.96,26.39 12.45,41.99 0.56,17.95 -4.14,34.32 -14.1,49.08 -9.95,14.77 -25.12,25.2 -45.5,31.31l68.64 108.4 -63.22 1.99zm-90.48 -144.44l45.67 -1.43c14.83,-0.47 25.77,-4.39 32.83,-11.78 7.07,-7.39 10.4,-17.45 10,-30.21 -0.4,-12.48 -4.34,-22.06 -11.85,-28.73 -7.49,-6.66 -18.66,-9.77 -33.49,-9.31l-45.67 1.44 2.51 80.01zm379.94 116.81c-25.2,3.97 -49.27,1.69 -72.22,-6.82 -22.95,-8.51 -42.24,-22.26 -57.88,-41.28 -15.65,-19 -25.56,-41.74 -29.73,-68.24 -4.14,-26.22 -1.67,-50.79 7.37,-73.69 9.04,-22.9 23.17,-41.92 42.39,-57.07 19.23,-15.15 41.43,-24.71 66.63,-28.68 25.46,-4.01 49.6,-1.75 72.42,6.78 22.82,8.53 41.98,22.31 57.5,41.33 15.51,19.04 25.33,41.66 29.47,67.9 4.17,26.48 1.8,51.16 -7.12,74.04 -8.91,22.89 -22.99,41.9 -42.2,57.04 -19.23,15.15 -41.43,24.72 -66.63,28.69zm-7.6 -48.22c16.21,-2.55 29.91,-8.45 41.08,-17.73 11.2,-9.27 19.18,-21.27 23.99,-36 4.79,-14.73 5.77,-31.08 2.94,-49.08 -2.84,-18 -8.8,-33.2 -17.86,-45.6 -9.08,-12.4 -20.35,-21.24 -33.82,-26.5 -13.48,-5.26 -28.32,-6.61 -44.51,-4.06 -16.21,2.55 -29.97,8.41 -41.3,17.58 -11.34,9.17 -19.42,21.04 -24.24,35.64 -4.82,14.6 -5.81,30.89 -2.98,48.89 2.84,18 8.81,33.26 17.89,45.79 9.09,12.53 20.46,21.49 34.09,26.86 13.62,5.36 28.53,6.77 44.72,4.21zm341.2 -214.36l15.29 43.45 -156.17 54.95 -15.29 -43.45 156.17 -54.95zm83.35 1.66c-13.11,-23.4 -19.57,-47.3 -19.38,-71.73 0.2,-24.42 6.54,-46.91 19.05,-67.49 12.48,-20.57 30.09,-37.23 52.79,-49.94 26.58,-14.88 53.66,-21.12 81.29,-18.68 27.63,2.42 52.14,13.45 73.58,33.08l-54.85 30.73c-11.81,-8.31 -24.25,-12.53 -37.31,-12.67 -13.06,-0.15 -26.07,3.4 -39.01,10.65 -13.86,7.77 -24.36,17.91 -31.52,30.42 -7.17,12.51 -10.46,26.37 -9.85,41.54 0.59,15.19 5.34,30.72 14.25,46.62 8.78,15.68 19.51,27.78 32.21,36.33 12.7,8.56 26.26,13.05 40.68,13.48 14.41,0.43 28.54,-3.24 42.39,-11 12.95,-7.25 22.74,-16.54 29.38,-27.86 6.63,-11.33 9.5,-24.2 8.58,-38.61l54.85 -30.73c5.67,28.76 2.34,55.46 -9.96,80.1 -12.31,24.65 -31.86,44.47 -58.65,59.48 -22.72,12.72 -46.1,19.04 -70.17,18.95 -24.08,-0.1 -46.54,-6.39 -67.41,-18.86 -20.86,-12.49 -37.85,-30.42 -50.94,-53.81zm296.39 -283.2l39.66 55.65 74.74 -53.25 25.15 35.31 -74.74 53.24 41.91 58.84 84.28 -60.05 25.84 36.26 -128.8 91.77 -158.37 -222.29 128.8 -91.76 25.82 36.25 -84.28 60.04z"/>
   <g>
    <path class="fil11" d="M4944.91 4353.36c-366.16,301.32 -826.04,261.07 -1132.25,-12.92 120.89,193.79 202.46,420.31 231.83,665.23l12.68 0 2.23 0 641.31 0 4.26 0 48.99 0c32.81,-273.45 130.65,-523.95 275.65,-731.57 -27.06,28.62 -55.38,55.14 -84.7,79.26z"/>
    <path class="fil11" d="M4400.55 2914.1c433.47,0 784.85,351.4 784.85,784.85 0,433.46 -351.39,784.85 -784.85,784.85 -433.46,0 -784.85,-351.4 -784.85,-784.85 0,-433.46 351.4,-784.85 784.85,-784.85z"/>
    <path class="fil14" d="M4803.24 3245.26c201.73,0 433.15,173.54 457.85,401.74 21.26,177.38 -34.35,363.77 -135.06,517.99 -58.06,88.9 -131.46,166.8 -212.93,226.96 -568.52,419.9 -1377.59,52.94 -1377.59,-690.11 0,-248.47 203.4,-456.58 459.29,-456.58 175.46,0 327.77,98.98 404.22,244.14 76.44,-145.16 202.49,-244.14 404.22,-244.14zm-459.05 750.48c6.93,47.99 26.37,93.81 56.36,136.25 29.36,-41.54 48.61,-86.31 55.9,-133.19 83.73,97.71 208.01,159.63 346.79,159.63 64.47,0 125.81,-13.39 181.42,-37.5 -10.9,31.43 -95.41,111.47 -126.06,139.03 -244.24,219.52 -674.91,219.52 -919.16,0 -30.65,-27.56 -115.16,-107.62 -126.06,-139.03 55.61,24.11 116.96,37.5 181.43,37.5 140.21,0 265.65,-63.22 349.39,-162.69zm-355.07 -607.42c174.21,0 315.44,141.22 315.44,315.44 0,174.21 -141.23,315.43 -315.44,315.43 -174.22,0 -315.44,-141.22 -315.44,-315.43 0,-174.22 141.22,-315.44 315.44,-315.44zm819.42 0c174.21,0 315.44,141.22 315.44,315.44 0,174.21 -141.23,315.43 -315.44,315.43 -174.22,0 -315.44,-141.22 -315.44,-315.43 0,-174.22 141.22,-315.44 315.44,-315.44z"/>
    <path class="fil15" d="M4809.47 3523.17c99.73,0 180.59,80.86 180.59,180.6 0,99.74 -80.86,180.59 -180.59,180.59 -99.74,0 -180.6,-80.85 -180.6,-180.59 0,-20.47 3.41,-40.14 9.68,-58.46 7.2,1.84 14.75,2.82 22.52,2.82 50.04,0 90.6,-40.57 90.6,-90.61 0,-8.23 -1.11,-16.2 -3.16,-23.79 19.05,-6.82 39.57,-10.56 60.96,-10.56z"/>
    <path class="fil15" d="M3990.05 3523.17c99.73,0 180.59,80.86 180.59,180.6 0,99.74 -80.86,180.59 -180.59,180.59 -99.74,0 -180.6,-80.85 -180.6,-180.59 0,-20.47 3.41,-40.14 9.68,-58.46 7.2,1.84 14.75,2.82 22.52,2.82 50.04,0 90.61,-40.57 90.61,-90.61 0,-8.23 -1.11,-16.2 -3.17,-23.79 19.05,-6.82 39.57,-10.56 60.96,-10.56z"/>
    <path class="fil15" d="M5202.13 3363.34l0 -87.26 0 -296.64 0 -65.19 0 -0.14 140.56 0 0 258.11c-44.32,25.2 -68.42,79.89 -39.01,136.53 4.52,8.72 8.34,10.9 12.34,18.83 -15.86,42.2 -24.95,46.15 -36.27,110.06 -8.48,47.87 -10.66,88.6 -11.07,137.15 -0.52,60.56 27.83,63.22 83.7,63.4 41.08,0.14 110.72,8.55 132.14,-18.46 28.83,-36.35 -5.24,-211.98 -21.65,-256.45 -12.73,-34.53 -22.14,-27.6 -9.11,-46.5 40.49,-58.77 8.77,-122.48 -32.07,-144.07l0 -258.6c41.18,0 82.28,-0.24 123.22,-0.24 9.63,0 17.5,-7.88 17.5,-17.51l0 -119.5c0,-9.64 -7.87,-17.5 -17.5,-17.5 -763.12,0 -1525.66,0 -2288.78,0 -9.63,0 -17.5,7.86 -17.5,17.5l0 119.5c0,9.63 7.87,17.51 17.5,17.51 114.33,0 228.66,0 342.99,0l0 0.14 0 65.19 0 296.88 0 87.02 0 32.97 0 1.82 0.09 0.04c0.79,8.11 6.65,14.74 14.35,16.67l0 0.27 786.99 159.33 784.63 -158.81c9.52,-1.09 16.92,-9.17 16.92,-18.99l0 -0.13 0 0 0 -32.93z"/>
    <g>
     <path class="fil16" d="M4722.35 5113.78c0,-436.47 217.54,-822.12 550.12,-1054.45 164.46,201.41 250.83,444.95 250.83,704.53 0,439.56 -254.4,819.68 -623.99,1001.18 -112.46,-190.99 -176.96,-413.59 -176.96,-651.26z"/>
     <g style="clip-path:url(#id0)">
      <g>
       <path id="_1" class="fil17" d="M5192.39 4590.31c0,-659.91 328.91,-1242.98 831.75,-1594.25 248.64,304.51 379.22,672.73 379.22,1065.19 0,664.57 -384.63,1239.29 -943.41,1513.69 -170.03,-288.75 -267.56,-625.3 -267.56,-984.64z"/>
      </g>
     </g>
     <path class="fil18" d="M4722.35 5113.78c0,-436.47 217.54,-822.12 550.12,-1054.45 164.46,201.41 250.83,444.95 250.83,704.53 0,439.56 -254.4,819.68 -623.99,1001.18 -112.46,-190.99 -176.96,-413.59 -176.96,-651.26z"/>
     <path class="fil19" d="M4078.76 5113.78c0,-436.47 -217.55,-822.12 -550.13,-1054.45 -164.45,201.41 -250.82,444.95 -250.82,704.53 0,439.56 254.39,819.68 623.98,1001.18 112.46,-190.99 176.97,-413.59 176.97,-651.26z"/>
     <g style="clip-path:url(#id1)">
      <g>
       <path id="_1_0" class="fil17" d="M3608.73 4590.31c0,-659.91 -328.92,-1242.98 -831.75,-1594.25 -248.64,304.51 -379.22,672.73 -379.22,1065.19 0,664.57 384.62,1239.29 943.41,1513.69 170.02,-288.75 267.56,-625.3 267.56,-984.64z"/>
      </g>
     </g>
     <path class="fil18" d="M4078.76 5113.78c0,-436.47 -217.55,-822.12 -550.13,-1054.45 -164.45,201.41 -250.82,444.95 -250.82,704.53 0,439.56 254.39,819.68 623.98,1001.18 112.46,-190.99 176.97,-413.59 176.97,-651.26z"/>
    </g>
    <g>
     <path class="fil20" d="M5016.18 4962.73l-306.93 0 -4.29 0 -644.66 0 -2.24 0 -317.21 0c-23.52,0 -43.76,8.05 -59.16,23.54l-278.54 280.1 -343.75 345.69c-25.28,25.42 -25.73,62.29 -1.09,88.18l1260.82 1324.27c15.38,16.15 36.11,24.65 60.19,24.66 24.09,0.02 44.82,-8.45 60.23,-24.58l1264.85 -1324.59c24.8,-25.96 24.27,-63.08 -1.26,-88.5l-341.99 -340.58 -286.06 -284.9c-15.4,-15.33 -35.53,-23.29 -58.91,-23.29z"/>
     <polygon class="fil11" points="3740.84,5032.6 5016.18,5032.6 5644.21,5658.08 4379.36,6982.66 3118.55,5658.39 "/>
     <polygon class="fil21" points="3741.34,5029.24 5016.18,5032.6 5644.21,5658.08 3118.55,5658.39 "/>
     <polygon class="fil22" points="3741.31,5658.31 4381.9,5032.6 5016.2,5658.16 4379.36,6982.66 "/>
    </g>
   </g>
  </g>
 </g>
</svg>
